M48
;Layer_Color=9474304
;FILE_FORMAT=2:5
INCH,TZ
;TYPE=PLATED
T1F00S00C0.03150
T3F00S00C0.03543
%
T01
X320968Y235156
X330968
X340968
X350968
X360968
X370968
X380968
X390968
X400968
X410968
X420968
X430968
X440968
X380229Y306404
X360544
X310968Y235156
X300968
X290968
X280968
X270968
X260968
X261165Y334566
X271165
X281165
X291165
X301165
X311165
X321165
X331165
X341165
X351165
X361165
X371165
X381165
X391165
X401165
X411165
X421165
X431165
X441165
T03
X266847Y273964
Y283964
Y293964
M30
