solid 
   facet normal 0.000000e+00 -0.000000e+00 -1.000000e+00
      outer loop
         vertex -5.200000e+01 -1.200000e+01 0.000000e+00
         vertex -4.823953e+01 -9.977212e+00 0.000000e+00
         vertex 5.200000e+01 -1.200000e+01 0.000000e+00
      endloop
   endfacet
   facet normal 0.000000e+00 -0.000000e+00 -1.000000e+00
      outer loop
         vertex -4.823953e+01 -9.977212e+00 0.000000e+00
         vertex -4.735093e+01 -9.464181e+00 0.000000e+00
         vertex 5.200000e+01 -1.200000e+01 0.000000e+00
      endloop
   endfacet
   facet normal 0.000000e+00 0.000000e+00 -1.000000e+00
      outer loop
         vertex 5.200000e+01 -1.200000e+01 0.000000e+00
         vertex 5.000000e+01 -8.500000e+00 0.000000e+00
         vertex 5.200000e+01 1.200000e+01 0.000000e+00
      endloop
   endfacet
   facet normal 0.000000e+00 0.000000e+00 -1.000000e+00
      outer loop
         vertex 5.000000e+01 -8.500000e+00 0.000000e+00
         vertex 4.964907e+01 -7.535819e+00 0.000000e+00
         vertex 5.200000e+01 1.200000e+01 0.000000e+00
      endloop
   endfacet
   facet normal 0.000000e+00 0.000000e+00 -1.000000e+00
      outer loop
         vertex 5.200000e+01 1.200000e+01 0.000000e+00
         vertex 4.876047e+01 9.977212e+00 0.000000e+00
         vertex -5.200000e+01 1.200000e+01 0.000000e+00
      endloop
   endfacet
   facet normal 0.000000e+00 0.000000e+00 -1.000000e+00
      outer loop
         vertex 4.876047e+01 9.977212e+00 0.000000e+00
         vertex 4.775000e+01 9.799038e+00 0.000000e+00
         vertex -5.200000e+01 1.200000e+01 0.000000e+00
      endloop
   endfacet
   facet normal -0.000000e+00 0.000000e+00 -1.000000e+00
      outer loop
         vertex -5.200000e+01 1.200000e+01 0.000000e+00
         vertex -4.990954e+01 9.013030e+00 0.000000e+00
         vertex -5.200000e+01 -1.200000e+01 0.000000e+00
      endloop
   endfacet
   facet normal -0.000000e+00 0.000000e+00 -1.000000e+00
      outer loop
         vertex -4.990954e+01 9.013030e+00 0.000000e+00
         vertex -4.990954e+01 7.986970e+00 0.000000e+00
         vertex -5.200000e+01 -1.200000e+01 0.000000e+00
      endloop
   endfacet
   facet normal 0.000000e+00 -0.000000e+00 -1.000000e+00
      outer loop
         vertex -5.200000e+01 -1.200000e+01 0.000000e+00
         vertex -4.990954e+01 -9.013030e+00 0.000000e+00
         vertex -4.925000e+01 -9.799038e+00 0.000000e+00
      endloop
   endfacet
   facet normal 0.000000e+00 0.000000e+00 -1.000000e+00
      outer loop
         vertex -4.990954e+01 9.013030e+00 0.000000e+00
         vertex -5.200000e+01 1.200000e+01 0.000000e+00
         vertex -4.925000e+01 9.799038e+00 0.000000e+00
      endloop
   endfacet
   facet normal 0.000000e+00 0.000000e+00 -1.000000e+00
      outer loop
         vertex -4.823953e+01 -9.977212e+00 0.000000e+00
         vertex -5.200000e+01 -1.200000e+01 0.000000e+00
         vertex -4.925000e+01 -9.799038e+00 0.000000e+00
      endloop
   endfacet
   facet normal 0.000000e+00 0.000000e+00 -1.000000e+00
      outer loop
         vertex -4.990954e+01 -9.013030e+00 0.000000e+00
         vertex -5.200000e+01 -1.200000e+01 0.000000e+00
         vertex -4.990954e+01 -7.986970e+00 0.000000e+00
      endloop
   endfacet
   facet normal 0.000000e+00 -0.000000e+00 -1.000000e+00
      outer loop
         vertex -5.200000e+01 -1.200000e+01 0.000000e+00
         vertex -4.990954e+01 7.986970e+00 0.000000e+00
         vertex -4.990954e+01 -7.986970e+00 0.000000e+00
      endloop
   endfacet
   facet normal 0.000000e+00 0.000000e+00 -1.000000e+00
      outer loop
         vertex -4.990954e+01 -7.986970e+00 0.000000e+00
         vertex -4.990954e+01 7.986970e+00 0.000000e+00
         vertex -4.925000e+01 -7.200962e+00 0.000000e+00
      endloop
   endfacet
   facet normal -0.000000e+00 -0.000000e+00 -1.000000e+00
      outer loop
         vertex -4.990954e+01 7.986970e+00 0.000000e+00
         vertex -4.925000e+01 7.200962e+00 0.000000e+00
         vertex -4.925000e+01 -7.200962e+00 0.000000e+00
      endloop
   endfacet
   facet normal 0.000000e+00 0.000000e+00 -1.000000e+00
      outer loop
         vertex -4.925000e+01 -7.200962e+00 0.000000e+00
         vertex -4.925000e+01 7.200962e+00 0.000000e+00
         vertex -4.823953e+01 -7.022789e+00 0.000000e+00
      endloop
   endfacet
   facet normal -0.000000e+00 -0.000000e+00 -1.000000e+00
      outer loop
         vertex -4.925000e+01 7.200962e+00 0.000000e+00
         vertex -4.823953e+01 7.022789e+00 0.000000e+00
         vertex -4.823953e+01 -7.022789e+00 0.000000e+00
      endloop
   endfacet
   facet normal 0.000000e+00 0.000000e+00 -1.000000e+00
      outer loop
         vertex -4.823953e+01 -7.022789e+00 0.000000e+00
         vertex -4.823953e+01 7.022789e+00 0.000000e+00
         vertex -4.735093e+01 -7.535819e+00 0.000000e+00
      endloop
   endfacet
   facet normal 0.000000e+00 -0.000000e+00 -1.000000e+00
      outer loop
         vertex -4.823953e+01 7.022789e+00 0.000000e+00
         vertex -4.735093e+01 7.535819e+00 0.000000e+00
         vertex -4.735093e+01 -7.535819e+00 0.000000e+00
      endloop
   endfacet
   facet normal 0.000000e+00 0.000000e+00 -1.000000e+00
      outer loop
         vertex -4.735093e+01 -7.535819e+00 0.000000e+00
         vertex -4.735093e+01 7.535819e+00 0.000000e+00
         vertex -4.700000e+01 -8.500000e+00 0.000000e+00
      endloop
   endfacet
   facet normal 0.000000e+00 -0.000000e+00 -1.000000e+00
      outer loop
         vertex -4.735093e+01 7.535819e+00 0.000000e+00
         vertex -4.700000e+01 8.500000e+00 0.000000e+00
         vertex -4.700000e+01 -8.500000e+00 0.000000e+00
      endloop
   endfacet
   facet normal 0.000000e+00 0.000000e+00 -1.000000e+00
      outer loop
         vertex -4.925000e+01 9.799038e+00 0.000000e+00
         vertex -5.200000e+01 1.200000e+01 0.000000e+00
         vertex -4.823953e+01 9.977212e+00 0.000000e+00
      endloop
   endfacet
   facet normal 0.000000e+00 0.000000e+00 -1.000000e+00
      outer loop
         vertex -5.200000e+01 1.200000e+01 0.000000e+00
         vertex -2.604723e-01 9.977212e+00 0.000000e+00
         vertex -4.823953e+01 9.977212e+00 0.000000e+00
      endloop
   endfacet
   facet normal -0.000000e+00 0.000000e+00 -1.000000e+00
      outer loop
         vertex -4.823953e+01 9.977212e+00 0.000000e+00
         vertex -2.604723e-01 9.977212e+00 0.000000e+00
         vertex -4.735093e+01 9.464181e+00 0.000000e+00
      endloop
   endfacet
   facet normal 0.000000e+00 0.000000e+00 -1.000000e+00
      outer loop
         vertex -2.604723e-01 9.977212e+00 0.000000e+00
         vertex -1.149067e+00 9.464181e+00 0.000000e+00
         vertex -4.735093e+01 9.464181e+00 0.000000e+00
      endloop
   endfacet
   facet normal -0.000000e+00 0.000000e+00 -1.000000e+00
      outer loop
         vertex -4.735093e+01 9.464181e+00 0.000000e+00
         vertex -1.149067e+00 9.464181e+00 0.000000e+00
         vertex -4.700000e+01 8.500000e+00 0.000000e+00
      endloop
   endfacet
   facet normal 0.000000e+00 0.000000e+00 -1.000000e+00
      outer loop
         vertex -1.149067e+00 9.464181e+00 0.000000e+00
         vertex -1.500000e+00 8.500000e+00 0.000000e+00
         vertex -4.700000e+01 8.500000e+00 0.000000e+00
      endloop
   endfacet
   facet normal -0.000000e+00 0.000000e+00 -1.000000e+00
      outer loop
         vertex -4.700000e+01 8.500000e+00 0.000000e+00
         vertex -1.500000e+00 8.500000e+00 0.000000e+00
         vertex -4.700000e+01 -8.500000e+00 0.000000e+00
      endloop
   endfacet
   facet normal -0.000000e+00 0.000000e+00 -1.000000e+00
      outer loop
         vertex -1.500000e+00 8.500000e+00 0.000000e+00
         vertex -1.149067e+00 7.535819e+00 0.000000e+00
         vertex -4.700000e+01 -8.500000e+00 0.000000e+00
      endloop
   endfacet
   facet normal 0.000000e+00 0.000000e+00 -1.000000e+00
      outer loop
         vertex -4.700000e+01 -8.500000e+00 0.000000e+00
         vertex -1.149067e+00 7.535819e+00 0.000000e+00
         vertex -4.735093e+01 -9.464181e+00 0.000000e+00
      endloop
   endfacet
   facet normal -0.000000e+00 0.000000e+00 -1.000000e+00
      outer loop
         vertex -1.149067e+00 7.535819e+00 0.000000e+00
         vertex -2.604723e-01 7.022789e+00 0.000000e+00
         vertex -4.735093e+01 -9.464181e+00 0.000000e+00
      endloop
   endfacet
   facet normal -0.000000e+00 -0.000000e+00 -1.000000e+00
      outer loop
         vertex -4.735093e+01 -9.464181e+00 0.000000e+00
         vertex -2.604723e-01 -9.977212e+00 0.000000e+00
         vertex 5.200000e+01 -1.200000e+01 0.000000e+00
      endloop
   endfacet
   facet normal 0.000000e+00 -0.000000e+00 -1.000000e+00
      outer loop
         vertex -2.604723e-01 -9.977212e+00 0.000000e+00
         vertex 7.500000e-01 -9.799038e+00 0.000000e+00
         vertex 5.200000e+01 -1.200000e+01 0.000000e+00
      endloop
   endfacet
   facet normal 0.000000e+00 0.000000e+00 -1.000000e+00
      outer loop
         vertex 5.200000e+01 -1.200000e+01 0.000000e+00
         vertex 7.500000e-01 -9.799038e+00 0.000000e+00
         vertex 4.876047e+01 -9.977212e+00 0.000000e+00
      endloop
   endfacet
   facet normal 0.000000e+00 -0.000000e+00 -1.000000e+00
      outer loop
         vertex 7.500000e-01 -9.799038e+00 0.000000e+00
         vertex 1.409539e+00 -9.013030e+00 0.000000e+00
         vertex 4.876047e+01 -9.977212e+00 0.000000e+00
      endloop
   endfacet
   facet normal 0.000000e+00 0.000000e+00 -1.000000e+00
      outer loop
         vertex 4.876047e+01 -9.977212e+00 0.000000e+00
         vertex 1.409539e+00 -9.013030e+00 0.000000e+00
         vertex 4.775000e+01 -9.799038e+00 0.000000e+00
      endloop
   endfacet
   facet normal 0.000000e+00 0.000000e+00 -1.000000e+00
      outer loop
         vertex 1.409539e+00 -9.013030e+00 0.000000e+00
         vertex 1.409539e+00 -7.986970e+00 0.000000e+00
         vertex 4.775000e+01 -9.799038e+00 0.000000e+00
      endloop
   endfacet
   facet normal 0.000000e+00 0.000000e+00 -1.000000e+00
      outer loop
         vertex 4.775000e+01 -9.799038e+00 0.000000e+00
         vertex 1.409539e+00 -7.986970e+00 0.000000e+00
         vertex 4.709046e+01 -9.013030e+00 0.000000e+00
      endloop
   endfacet
   facet normal 0.000000e+00 0.000000e+00 -1.000000e+00
      outer loop
         vertex 1.409539e+00 -7.986970e+00 0.000000e+00
         vertex 7.500000e-01 -7.200962e+00 0.000000e+00
         vertex 4.709046e+01 -9.013030e+00 0.000000e+00
      endloop
   endfacet
   facet normal 0.000000e+00 0.000000e+00 -1.000000e+00
      outer loop
         vertex 4.709046e+01 -9.013030e+00 0.000000e+00
         vertex 7.500000e-01 -7.200962e+00 0.000000e+00
         vertex 4.709046e+01 -7.986970e+00 0.000000e+00
      endloop
   endfacet
   facet normal 0.000000e+00 0.000000e+00 -1.000000e+00
      outer loop
         vertex 7.500000e-01 -7.200962e+00 0.000000e+00
         vertex -2.604723e-01 -7.022789e+00 0.000000e+00
         vertex 4.709046e+01 -7.986970e+00 0.000000e+00
      endloop
   endfacet
   facet normal 0.000000e+00 0.000000e+00 -1.000000e+00
      outer loop
         vertex 4.709046e+01 -7.986970e+00 0.000000e+00
         vertex -2.604723e-01 -7.022789e+00 0.000000e+00
         vertex 4.775000e+01 -7.200962e+00 0.000000e+00
      endloop
   endfacet
   facet normal 0.000000e+00 0.000000e+00 -1.000000e+00
      outer loop
         vertex -2.604723e-01 -9.977212e+00 0.000000e+00
         vertex -4.735093e+01 -9.464181e+00 0.000000e+00
         vertex -1.149067e+00 -9.464181e+00 0.000000e+00
      endloop
   endfacet
   facet normal 0.000000e+00 0.000000e+00 -1.000000e+00
      outer loop
         vertex -1.149067e+00 -9.464181e+00 0.000000e+00
         vertex -4.735093e+01 -9.464181e+00 0.000000e+00
         vertex -1.500000e+00 -8.500000e+00 0.000000e+00
      endloop
   endfacet
   facet normal 0.000000e+00 0.000000e+00 -1.000000e+00
      outer loop
         vertex -4.735093e+01 -9.464181e+00 0.000000e+00
         vertex -2.604723e-01 7.022789e+00 0.000000e+00
         vertex -1.500000e+00 -8.500000e+00 0.000000e+00
      endloop
   endfacet
   facet normal 0.000000e+00 0.000000e+00 -1.000000e+00
      outer loop
         vertex -1.500000e+00 -8.500000e+00 0.000000e+00
         vertex -2.604723e-01 7.022789e+00 0.000000e+00
         vertex -1.149067e+00 -7.535819e+00 0.000000e+00
      endloop
   endfacet
   facet normal 0.000000e+00 0.000000e+00 -1.000000e+00
      outer loop
         vertex -2.604723e-01 7.022789e+00 0.000000e+00
         vertex 7.500000e-01 7.200962e+00 0.000000e+00
         vertex -1.149067e+00 -7.535819e+00 0.000000e+00
      endloop
   endfacet
   facet normal 0.000000e+00 0.000000e+00 -1.000000e+00
      outer loop
         vertex -1.149067e+00 -7.535819e+00 0.000000e+00
         vertex 7.500000e-01 7.200962e+00 0.000000e+00
         vertex -2.604723e-01 -7.022789e+00 0.000000e+00
      endloop
   endfacet
   facet normal 0.000000e+00 0.000000e+00 -1.000000e+00
      outer loop
         vertex 7.500000e-01 7.200962e+00 0.000000e+00
         vertex 1.409539e+00 7.986970e+00 0.000000e+00
         vertex -2.604723e-01 -7.022789e+00 0.000000e+00
      endloop
   endfacet
   facet normal 0.000000e+00 -0.000000e+00 -1.000000e+00
      outer loop
         vertex -2.604723e-01 -7.022789e+00 0.000000e+00
         vertex 1.409539e+00 7.986970e+00 0.000000e+00
         vertex 4.775000e+01 -7.200962e+00 0.000000e+00
      endloop
   endfacet
   facet normal 0.000000e+00 0.000000e+00 -1.000000e+00
      outer loop
         vertex 1.409539e+00 7.986970e+00 0.000000e+00
         vertex 1.409539e+00 9.013030e+00 0.000000e+00
         vertex 4.775000e+01 -7.200962e+00 0.000000e+00
      endloop
   endfacet
   facet normal 0.000000e+00 0.000000e+00 -1.000000e+00
      outer loop
         vertex 4.775000e+01 -7.200962e+00 0.000000e+00
         vertex 1.409539e+00 9.013030e+00 0.000000e+00
         vertex 4.876047e+01 -7.022789e+00 0.000000e+00
      endloop
   endfacet
   facet normal 0.000000e+00 0.000000e+00 -1.000000e+00
      outer loop
         vertex 1.409539e+00 9.013030e+00 0.000000e+00
         vertex 7.500000e-01 9.799038e+00 0.000000e+00
         vertex 4.876047e+01 -7.022789e+00 0.000000e+00
      endloop
   endfacet
   facet normal 0.000000e+00 0.000000e+00 -1.000000e+00
      outer loop
         vertex -5.200000e+01 1.200000e+01 0.000000e+00
         vertex 4.775000e+01 9.799038e+00 0.000000e+00
         vertex -2.604723e-01 9.977212e+00 0.000000e+00
      endloop
   endfacet
   facet normal 0.000000e+00 0.000000e+00 -1.000000e+00
      outer loop
         vertex 4.775000e+01 9.799038e+00 0.000000e+00
         vertex 4.709046e+01 9.013030e+00 0.000000e+00
         vertex -2.604723e-01 9.977212e+00 0.000000e+00
      endloop
   endfacet
   facet normal 0.000000e+00 0.000000e+00 -1.000000e+00
      outer loop
         vertex -2.604723e-01 9.977212e+00 0.000000e+00
         vertex 4.709046e+01 9.013030e+00 0.000000e+00
         vertex 7.500000e-01 9.799038e+00 0.000000e+00
      endloop
   endfacet
   facet normal 0.000000e+00 0.000000e+00 -1.000000e+00
      outer loop
         vertex 4.709046e+01 9.013030e+00 0.000000e+00
         vertex 4.709046e+01 7.986970e+00 0.000000e+00
         vertex 7.500000e-01 9.799038e+00 0.000000e+00
      endloop
   endfacet
   facet normal -0.000000e+00 -0.000000e+00 -1.000000e+00
      outer loop
         vertex 7.500000e-01 9.799038e+00 0.000000e+00
         vertex 4.709046e+01 7.986970e+00 0.000000e+00
         vertex 4.876047e+01 -7.022789e+00 0.000000e+00
      endloop
   endfacet
   facet normal -0.000000e+00 -0.000000e+00 -1.000000e+00
      outer loop
         vertex 4.709046e+01 7.986970e+00 0.000000e+00
         vertex 4.775000e+01 7.200962e+00 0.000000e+00
         vertex 4.876047e+01 -7.022789e+00 0.000000e+00
      endloop
   endfacet
   facet normal 0.000000e+00 0.000000e+00 -1.000000e+00
      outer loop
         vertex 4.876047e+01 -7.022789e+00 0.000000e+00
         vertex 4.775000e+01 7.200962e+00 0.000000e+00
         vertex 4.964907e+01 -7.535819e+00 0.000000e+00
      endloop
   endfacet
   facet normal -0.000000e+00 -0.000000e+00 -1.000000e+00
      outer loop
         vertex 4.775000e+01 7.200962e+00 0.000000e+00
         vertex 4.876047e+01 7.022789e+00 0.000000e+00
         vertex 4.964907e+01 -7.535819e+00 0.000000e+00
      endloop
   endfacet
   facet normal 0.000000e+00 0.000000e+00 -1.000000e+00
      outer loop
         vertex 4.964907e+01 -7.535819e+00 0.000000e+00
         vertex 4.964907e+01 7.535819e+00 0.000000e+00
         vertex 5.200000e+01 1.200000e+01 0.000000e+00
      endloop
   endfacet
   facet normal 0.000000e+00 -0.000000e+00 -1.000000e+00
      outer loop
         vertex 4.964907e+01 7.535819e+00 0.000000e+00
         vertex 5.000000e+01 8.500000e+00 0.000000e+00
         vertex 5.200000e+01 1.200000e+01 0.000000e+00
      endloop
   endfacet
   facet normal 0.000000e+00 0.000000e+00 -1.000000e+00
      outer loop
         vertex 5.200000e+01 1.200000e+01 0.000000e+00
         vertex 4.964907e+01 9.464181e+00 0.000000e+00
         vertex 4.876047e+01 9.977212e+00 0.000000e+00
      endloop
   endfacet
   facet normal 0.000000e+00 0.000000e+00 -1.000000e+00
      outer loop
         vertex 4.964907e+01 7.535819e+00 0.000000e+00
         vertex 4.964907e+01 -7.535819e+00 0.000000e+00
         vertex 4.876047e+01 7.022789e+00 0.000000e+00
      endloop
   endfacet
   facet normal 0.000000e+00 0.000000e+00 -1.000000e+00
      outer loop
         vertex 4.964907e+01 9.464181e+00 0.000000e+00
         vertex 5.200000e+01 1.200000e+01 0.000000e+00
         vertex 5.000000e+01 8.500000e+00 0.000000e+00
      endloop
   endfacet
   facet normal 0.000000e+00 0.000000e+00 -1.000000e+00
      outer loop
         vertex 5.000000e+01 -8.500000e+00 0.000000e+00
         vertex 5.200000e+01 -1.200000e+01 0.000000e+00
         vertex 4.964907e+01 -9.464181e+00 0.000000e+00
      endloop
   endfacet
   facet normal 0.000000e+00 0.000000e+00 -1.000000e+00
      outer loop
         vertex 5.200000e+01 -1.200000e+01 0.000000e+00
         vertex 4.876047e+01 -9.977212e+00 0.000000e+00
         vertex 4.964907e+01 -9.464181e+00 0.000000e+00
      endloop
   endfacet
   facet normal -0.000000e+00 0.000000e+00 1.000000e+00
      outer loop
         vertex 5.200000e+01 1.200000e+01 5.000000e+00
         vertex 5.000000e+01 8.500000e+00 5.000000e+00
         vertex 5.200000e+01 -1.200000e+01 5.000000e+00
      endloop
   endfacet
   facet normal -0.000000e+00 0.000000e+00 1.000000e+00
      outer loop
         vertex 5.000000e+01 8.500000e+00 5.000000e+00
         vertex 4.964907e+01 7.535819e+00 5.000000e+00
         vertex 5.200000e+01 -1.200000e+01 5.000000e+00
      endloop
   endfacet
   facet normal 0.000000e+00 0.000000e+00 1.000000e+00
      outer loop
         vertex 5.200000e+01 -1.200000e+01 5.000000e+00
         vertex 4.876047e+01 -9.977212e+00 5.000000e+00
         vertex -5.200000e+01 -1.200000e+01 5.000000e+00
      endloop
   endfacet
   facet normal 0.000000e+00 0.000000e+00 1.000000e+00
      outer loop
         vertex 4.876047e+01 -9.977212e+00 5.000000e+00
         vertex 4.775000e+01 -9.799038e+00 5.000000e+00
         vertex -5.200000e+01 -1.200000e+01 5.000000e+00
      endloop
   endfacet
   facet normal 0.000000e+00 0.000000e+00 1.000000e+00
      outer loop
         vertex -5.200000e+01 -1.200000e+01 5.000000e+00
         vertex -4.990954e+01 -9.013030e+00 5.000000e+00
         vertex -5.200000e+01 1.200000e+01 5.000000e+00
      endloop
   endfacet
   facet normal 0.000000e+00 0.000000e+00 1.000000e+00
      outer loop
         vertex -4.990954e+01 -9.013030e+00 5.000000e+00
         vertex -4.990954e+01 -7.986970e+00 5.000000e+00
         vertex -5.200000e+01 1.200000e+01 5.000000e+00
      endloop
   endfacet
   facet normal 0.000000e+00 -0.000000e+00 1.000000e+00
      outer loop
         vertex -5.200000e+01 1.200000e+01 5.000000e+00
         vertex -4.823953e+01 9.977212e+00 5.000000e+00
         vertex 5.200000e+01 1.200000e+01 5.000000e+00
      endloop
   endfacet
   facet normal 0.000000e+00 -0.000000e+00 1.000000e+00
      outer loop
         vertex -4.823953e+01 9.977212e+00 5.000000e+00
         vertex -4.735093e+01 9.464181e+00 5.000000e+00
         vertex 5.200000e+01 1.200000e+01 5.000000e+00
      endloop
   endfacet
   facet normal 0.000000e+00 0.000000e+00 1.000000e+00
      outer loop
         vertex 5.200000e+01 1.200000e+01 5.000000e+00
         vertex -2.604723e-01 9.977212e+00 5.000000e+00
         vertex 4.876047e+01 9.977212e+00 5.000000e+00
      endloop
   endfacet
   facet normal 0.000000e+00 -0.000000e+00 1.000000e+00
      outer loop
         vertex -2.604723e-01 9.977212e+00 5.000000e+00
         vertex 7.500000e-01 9.799038e+00 5.000000e+00
         vertex 4.876047e+01 9.977212e+00 5.000000e+00
      endloop
   endfacet
   facet normal 0.000000e+00 0.000000e+00 1.000000e+00
      outer loop
         vertex 4.876047e+01 9.977212e+00 5.000000e+00
         vertex 7.500000e-01 9.799038e+00 5.000000e+00
         vertex 4.775000e+01 9.799038e+00 5.000000e+00
      endloop
   endfacet
   facet normal 0.000000e+00 -0.000000e+00 1.000000e+00
      outer loop
         vertex 7.500000e-01 9.799038e+00 5.000000e+00
         vertex 1.409539e+00 9.013030e+00 5.000000e+00
         vertex 4.775000e+01 9.799038e+00 5.000000e+00
      endloop
   endfacet
   facet normal 0.000000e+00 0.000000e+00 1.000000e+00
      outer loop
         vertex 4.775000e+01 9.799038e+00 5.000000e+00
         vertex 1.409539e+00 9.013030e+00 5.000000e+00
         vertex 4.709046e+01 9.013030e+00 5.000000e+00
      endloop
   endfacet
   facet normal 0.000000e+00 0.000000e+00 1.000000e+00
      outer loop
         vertex 1.409539e+00 9.013030e+00 5.000000e+00
         vertex 1.409539e+00 7.986970e+00 5.000000e+00
         vertex 4.709046e+01 9.013030e+00 5.000000e+00
      endloop
   endfacet
   facet normal 0.000000e+00 0.000000e+00 1.000000e+00
      outer loop
         vertex 4.709046e+01 9.013030e+00 5.000000e+00
         vertex 1.409539e+00 7.986970e+00 5.000000e+00
         vertex 4.709046e+01 7.986970e+00 5.000000e+00
      endloop
   endfacet
   facet normal 0.000000e+00 0.000000e+00 1.000000e+00
      outer loop
         vertex 1.409539e+00 7.986970e+00 5.000000e+00
         vertex 7.500000e-01 7.200962e+00 5.000000e+00
         vertex 4.709046e+01 7.986970e+00 5.000000e+00
      endloop
   endfacet
   facet normal 0.000000e+00 0.000000e+00 1.000000e+00
      outer loop
         vertex 4.709046e+01 7.986970e+00 5.000000e+00
         vertex 7.500000e-01 7.200962e+00 5.000000e+00
         vertex 4.775000e+01 7.200962e+00 5.000000e+00
      endloop
   endfacet
   facet normal 0.000000e+00 0.000000e+00 1.000000e+00
      outer loop
         vertex 7.500000e-01 7.200962e+00 5.000000e+00
         vertex -2.604723e-01 7.022789e+00 5.000000e+00
         vertex 4.775000e+01 7.200962e+00 5.000000e+00
      endloop
   endfacet
   facet normal 0.000000e+00 0.000000e+00 1.000000e+00
      outer loop
         vertex 4.775000e+01 7.200962e+00 5.000000e+00
         vertex -2.604723e-01 7.022789e+00 5.000000e+00
         vertex 4.876047e+01 7.022789e+00 5.000000e+00
      endloop
   endfacet
   facet normal 0.000000e+00 0.000000e+00 1.000000e+00
      outer loop
         vertex 5.200000e+01 1.200000e+01 5.000000e+00
         vertex -4.735093e+01 9.464181e+00 5.000000e+00
         vertex -2.604723e-01 9.977212e+00 5.000000e+00
      endloop
   endfacet
   facet normal 0.000000e+00 0.000000e+00 1.000000e+00
      outer loop
         vertex -2.604723e-01 9.977212e+00 5.000000e+00
         vertex -4.735093e+01 9.464181e+00 5.000000e+00
         vertex -1.149067e+00 9.464181e+00 5.000000e+00
      endloop
   endfacet
   facet normal 0.000000e+00 -0.000000e+00 1.000000e+00
      outer loop
         vertex -4.735093e+01 9.464181e+00 5.000000e+00
         vertex -4.700000e+01 8.500000e+00 5.000000e+00
         vertex -1.149067e+00 9.464181e+00 5.000000e+00
      endloop
   endfacet
   facet normal 0.000000e+00 0.000000e+00 1.000000e+00
      outer loop
         vertex -1.149067e+00 9.464181e+00 5.000000e+00
         vertex -4.700000e+01 8.500000e+00 5.000000e+00
         vertex -1.500000e+00 8.500000e+00 5.000000e+00
      endloop
   endfacet
   facet normal 0.000000e+00 0.000000e+00 1.000000e+00
      outer loop
         vertex -4.700000e+01 8.500000e+00 5.000000e+00
         vertex -4.735093e+01 7.535819e+00 5.000000e+00
         vertex -1.500000e+00 8.500000e+00 5.000000e+00
      endloop
   endfacet
   facet normal 0.000000e+00 0.000000e+00 1.000000e+00
      outer loop
         vertex -1.500000e+00 8.500000e+00 5.000000e+00
         vertex -4.735093e+01 7.535819e+00 5.000000e+00
         vertex -1.149067e+00 7.535819e+00 5.000000e+00
      endloop
   endfacet
   facet normal 0.000000e+00 0.000000e+00 1.000000e+00
      outer loop
         vertex -4.735093e+01 7.535819e+00 5.000000e+00
         vertex -4.823953e+01 7.022789e+00 5.000000e+00
         vertex -1.149067e+00 7.535819e+00 5.000000e+00
      endloop
   endfacet
   facet normal 0.000000e+00 0.000000e+00 1.000000e+00
      outer loop
         vertex -1.149067e+00 7.535819e+00 5.000000e+00
         vertex -4.823953e+01 7.022789e+00 5.000000e+00
         vertex -2.604723e-01 7.022789e+00 5.000000e+00
      endloop
   endfacet
   facet normal 0.000000e+00 0.000000e+00 1.000000e+00
      outer loop
         vertex -4.925000e+01 9.799038e+00 5.000000e+00
         vertex -5.200000e+01 1.200000e+01 5.000000e+00
         vertex -4.990954e+01 9.013030e+00 5.000000e+00
      endloop
   endfacet
   facet normal 0.000000e+00 0.000000e+00 1.000000e+00
      outer loop
         vertex -4.990954e+01 9.013030e+00 5.000000e+00
         vertex -5.200000e+01 1.200000e+01 5.000000e+00
         vertex -4.990954e+01 7.986970e+00 5.000000e+00
      endloop
   endfacet
   facet normal 0.000000e+00 -0.000000e+00 1.000000e+00
      outer loop
         vertex -5.200000e+01 1.200000e+01 5.000000e+00
         vertex -4.990954e+01 -7.986970e+00 5.000000e+00
         vertex -4.990954e+01 7.986970e+00 5.000000e+00
      endloop
   endfacet
   facet normal 0.000000e+00 0.000000e+00 1.000000e+00
      outer loop
         vertex -4.990954e+01 7.986970e+00 5.000000e+00
         vertex -4.990954e+01 -7.986970e+00 5.000000e+00
         vertex -4.925000e+01 7.200962e+00 5.000000e+00
      endloop
   endfacet
   facet normal 0.000000e+00 -0.000000e+00 1.000000e+00
      outer loop
         vertex -4.990954e+01 -7.986970e+00 5.000000e+00
         vertex -4.925000e+01 -7.200962e+00 5.000000e+00
         vertex -4.925000e+01 7.200962e+00 5.000000e+00
      endloop
   endfacet
   facet normal 0.000000e+00 0.000000e+00 1.000000e+00
      outer loop
         vertex -4.925000e+01 7.200962e+00 5.000000e+00
         vertex -4.925000e+01 -7.200962e+00 5.000000e+00
         vertex -4.823953e+01 7.022789e+00 5.000000e+00
      endloop
   endfacet
   facet normal 0.000000e+00 -0.000000e+00 1.000000e+00
      outer loop
         vertex -4.925000e+01 -7.200962e+00 5.000000e+00
         vertex -4.823953e+01 -7.022789e+00 5.000000e+00
         vertex -4.823953e+01 7.022789e+00 5.000000e+00
      endloop
   endfacet
   facet normal 0.000000e+00 0.000000e+00 1.000000e+00
      outer loop
         vertex -4.823953e+01 7.022789e+00 5.000000e+00
         vertex -4.823953e+01 -7.022789e+00 5.000000e+00
         vertex -2.604723e-01 7.022789e+00 5.000000e+00
      endloop
   endfacet
   facet normal 0.000000e+00 -0.000000e+00 1.000000e+00
      outer loop
         vertex -4.823953e+01 -7.022789e+00 5.000000e+00
         vertex -4.735093e+01 -7.535819e+00 5.000000e+00
         vertex -2.604723e-01 7.022789e+00 5.000000e+00
      endloop
   endfacet
   facet normal 0.000000e+00 0.000000e+00 1.000000e+00
      outer loop
         vertex -2.604723e-01 7.022789e+00 5.000000e+00
         vertex -4.735093e+01 -7.535819e+00 5.000000e+00
         vertex 4.876047e+01 7.022789e+00 5.000000e+00
      endloop
   endfacet
   facet normal 0.000000e+00 -0.000000e+00 1.000000e+00
      outer loop
         vertex -4.735093e+01 -7.535819e+00 5.000000e+00
         vertex -4.700000e+01 -8.500000e+00 5.000000e+00
         vertex 4.876047e+01 7.022789e+00 5.000000e+00
      endloop
   endfacet
   facet normal 0.000000e+00 0.000000e+00 1.000000e+00
      outer loop
         vertex -4.700000e+01 -8.500000e+00 5.000000e+00
         vertex -4.735093e+01 -9.464181e+00 5.000000e+00
         vertex 4.876047e+01 7.022789e+00 5.000000e+00
      endloop
   endfacet
   facet normal 0.000000e+00 0.000000e+00 1.000000e+00
      outer loop
         vertex -4.735093e+01 -9.464181e+00 5.000000e+00
         vertex -4.823953e+01 -9.977212e+00 5.000000e+00
         vertex 4.876047e+01 7.022789e+00 5.000000e+00
      endloop
   endfacet
   facet normal 0.000000e+00 0.000000e+00 1.000000e+00
      outer loop
         vertex -4.925000e+01 -9.799038e+00 5.000000e+00
         vertex -5.200000e+01 -1.200000e+01 5.000000e+00
         vertex -4.823953e+01 -9.977212e+00 5.000000e+00
      endloop
   endfacet
   facet normal 0.000000e+00 0.000000e+00 1.000000e+00
      outer loop
         vertex -5.200000e+01 -1.200000e+01 5.000000e+00
         vertex -2.604723e-01 -9.977212e+00 5.000000e+00
         vertex -4.823953e+01 -9.977212e+00 5.000000e+00
      endloop
   endfacet
   facet normal 0.000000e+00 -0.000000e+00 1.000000e+00
      outer loop
         vertex -4.823953e+01 -9.977212e+00 5.000000e+00
         vertex -2.604723e-01 -7.022789e+00 5.000000e+00
         vertex 4.876047e+01 7.022789e+00 5.000000e+00
      endloop
   endfacet
   facet normal 0.000000e+00 -0.000000e+00 1.000000e+00
      outer loop
         vertex -2.604723e-01 -7.022789e+00 5.000000e+00
         vertex 7.500000e-01 -7.200962e+00 5.000000e+00
         vertex 4.876047e+01 7.022789e+00 5.000000e+00
      endloop
   endfacet
   facet normal 0.000000e+00 -0.000000e+00 1.000000e+00
      outer loop
         vertex 7.500000e-01 -7.200962e+00 5.000000e+00
         vertex 1.409539e+00 -7.986970e+00 5.000000e+00
         vertex 4.876047e+01 7.022789e+00 5.000000e+00
      endloop
   endfacet
   facet normal 0.000000e+00 0.000000e+00 1.000000e+00
      outer loop
         vertex 1.409539e+00 -7.986970e+00 5.000000e+00
         vertex 1.409539e+00 -9.013030e+00 5.000000e+00
         vertex 4.876047e+01 7.022789e+00 5.000000e+00
      endloop
   endfacet
   facet normal 0.000000e+00 0.000000e+00 1.000000e+00
      outer loop
         vertex 1.409539e+00 -9.013030e+00 5.000000e+00
         vertex 7.500000e-01 -9.799038e+00 5.000000e+00
         vertex 4.876047e+01 7.022789e+00 5.000000e+00
      endloop
   endfacet
   facet normal 0.000000e+00 0.000000e+00 1.000000e+00
      outer loop
         vertex -5.200000e+01 -1.200000e+01 5.000000e+00
         vertex 4.775000e+01 -9.799038e+00 5.000000e+00
         vertex -2.604723e-01 -9.977212e+00 5.000000e+00
      endloop
   endfacet
   facet normal 0.000000e+00 0.000000e+00 1.000000e+00
      outer loop
         vertex -2.604723e-01 -9.977212e+00 5.000000e+00
         vertex 4.775000e+01 -9.799038e+00 5.000000e+00
         vertex 7.500000e-01 -9.799038e+00 5.000000e+00
      endloop
   endfacet
   facet normal 0.000000e+00 0.000000e+00 1.000000e+00
      outer loop
         vertex 4.775000e+01 -9.799038e+00 5.000000e+00
         vertex 4.709046e+01 -9.013030e+00 5.000000e+00
         vertex 7.500000e-01 -9.799038e+00 5.000000e+00
      endloop
   endfacet
   facet normal 0.000000e+00 -0.000000e+00 1.000000e+00
      outer loop
         vertex 7.500000e-01 -9.799038e+00 5.000000e+00
         vertex 4.709046e+01 -7.986970e+00 5.000000e+00
         vertex 4.876047e+01 7.022789e+00 5.000000e+00
      endloop
   endfacet
   facet normal 0.000000e+00 -0.000000e+00 1.000000e+00
      outer loop
         vertex 4.709046e+01 -7.986970e+00 5.000000e+00
         vertex 4.775000e+01 -7.200962e+00 5.000000e+00
         vertex 4.876047e+01 7.022789e+00 5.000000e+00
      endloop
   endfacet
   facet normal 0.000000e+00 0.000000e+00 1.000000e+00
      outer loop
         vertex 4.876047e+01 7.022789e+00 5.000000e+00
         vertex 4.775000e+01 -7.200962e+00 5.000000e+00
         vertex 4.964907e+01 7.535819e+00 5.000000e+00
      endloop
   endfacet
   facet normal 0.000000e+00 -0.000000e+00 1.000000e+00
      outer loop
         vertex 4.775000e+01 -7.200962e+00 5.000000e+00
         vertex 4.876047e+01 -7.022789e+00 5.000000e+00
         vertex 4.964907e+01 7.535819e+00 5.000000e+00
      endloop
   endfacet
   facet normal -0.000000e+00 0.000000e+00 1.000000e+00
      outer loop
         vertex 4.964907e+01 7.535819e+00 5.000000e+00
         vertex 4.964907e+01 -7.535819e+00 5.000000e+00
         vertex 5.200000e+01 -1.200000e+01 5.000000e+00
      endloop
   endfacet
   facet normal -0.000000e+00 -0.000000e+00 1.000000e+00
      outer loop
         vertex 4.964907e+01 -7.535819e+00 5.000000e+00
         vertex 5.000000e+01 -8.500000e+00 5.000000e+00
         vertex 5.200000e+01 -1.200000e+01 5.000000e+00
      endloop
   endfacet
   facet normal 0.000000e+00 0.000000e+00 1.000000e+00
      outer loop
         vertex 5.200000e+01 -1.200000e+01 5.000000e+00
         vertex 4.964907e+01 -9.464181e+00 5.000000e+00
         vertex 4.876047e+01 -9.977212e+00 5.000000e+00
      endloop
   endfacet
   facet normal 0.000000e+00 0.000000e+00 1.000000e+00
      outer loop
         vertex 4.964907e+01 -9.464181e+00 5.000000e+00
         vertex 5.200000e+01 -1.200000e+01 5.000000e+00
         vertex 5.000000e+01 -8.500000e+00 5.000000e+00
      endloop
   endfacet
   facet normal 0.000000e+00 0.000000e+00 1.000000e+00
      outer loop
         vertex -4.823953e+01 9.977212e+00 5.000000e+00
         vertex -5.200000e+01 1.200000e+01 5.000000e+00
         vertex -4.925000e+01 9.799038e+00 5.000000e+00
      endloop
   endfacet
   facet normal 0.000000e+00 0.000000e+00 1.000000e+00
      outer loop
         vertex -4.990954e+01 -9.013030e+00 5.000000e+00
         vertex -5.200000e+01 -1.200000e+01 5.000000e+00
         vertex -4.925000e+01 -9.799038e+00 5.000000e+00
      endloop
   endfacet
   facet normal 0.000000e+00 0.000000e+00 1.000000e+00
      outer loop
         vertex 5.000000e+01 8.500000e+00 5.000000e+00
         vertex 5.200000e+01 1.200000e+01 5.000000e+00
         vertex 4.964907e+01 9.464181e+00 5.000000e+00
      endloop
   endfacet
   facet normal -0.000000e+00 0.000000e+00 1.000000e+00
      outer loop
         vertex 5.200000e+01 1.200000e+01 5.000000e+00
         vertex 4.876047e+01 9.977212e+00 5.000000e+00
         vertex 4.964907e+01 9.464181e+00 5.000000e+00
      endloop
   endfacet
   facet normal 0.000000e+00 0.000000e+00 1.000000e+00
      outer loop
         vertex -2.604723e-01 -7.022789e+00 5.000000e+00
         vertex -4.823953e+01 -9.977212e+00 5.000000e+00
         vertex -1.149067e+00 -7.535819e+00 5.000000e+00
      endloop
   endfacet
   facet normal 0.000000e+00 -0.000000e+00 1.000000e+00
      outer loop
         vertex -4.823953e+01 -9.977212e+00 5.000000e+00
         vertex -1.500000e+00 -8.500000e+00 5.000000e+00
         vertex -1.149067e+00 -7.535819e+00 5.000000e+00
      endloop
   endfacet
   facet normal 0.000000e+00 0.000000e+00 1.000000e+00
      outer loop
         vertex -1.149067e+00 -9.464181e+00 5.000000e+00
         vertex -4.823953e+01 -9.977212e+00 5.000000e+00
         vertex -2.604723e-01 -9.977212e+00 5.000000e+00
      endloop
   endfacet
   facet normal 0.000000e+00 0.000000e+00 1.000000e+00
      outer loop
         vertex -1.500000e+00 -8.500000e+00 5.000000e+00
         vertex -4.823953e+01 -9.977212e+00 5.000000e+00
         vertex -1.149067e+00 -9.464181e+00 5.000000e+00
      endloop
   endfacet
   facet normal 0.000000e+00 0.000000e+00 1.000000e+00
      outer loop
         vertex 4.709046e+01 -7.986970e+00 5.000000e+00
         vertex 7.500000e-01 -9.799038e+00 5.000000e+00
         vertex 4.709046e+01 -9.013030e+00 5.000000e+00
      endloop
   endfacet
   facet normal 0.000000e+00 0.000000e+00 1.000000e+00
      outer loop
         vertex 4.964907e+01 -7.535819e+00 5.000000e+00
         vertex 4.964907e+01 7.535819e+00 5.000000e+00
         vertex 4.876047e+01 -7.022789e+00 5.000000e+00
      endloop
   endfacet
   facet normal 9.396926e-01 3.420203e-01 -0.000000e+00
      outer loop
         vertex -1.149067e+00 -9.464181e+00 5.000000e+00
         vertex -1.149067e+00 -9.464181e+00 0.000000e+00
         vertex -1.500000e+00 -8.500000e+00 0.000000e+00
      endloop
   endfacet
   facet normal 9.396926e-01 3.420203e-01 0.000000e+00
      outer loop
         vertex -1.500000e+00 -8.500000e+00 5.000000e+00
         vertex -1.149067e+00 -9.464181e+00 5.000000e+00
         vertex -1.500000e+00 -8.500000e+00 0.000000e+00
      endloop
   endfacet
   facet normal 5.000006e-01 8.660251e-01 -0.000000e+00
      outer loop
         vertex -2.604723e-01 -9.977212e+00 5.000000e+00
         vertex -2.604723e-01 -9.977212e+00 0.000000e+00
         vertex -1.149067e+00 -9.464181e+00 0.000000e+00
      endloop
   endfacet
   facet normal 5.000006e-01 8.660251e-01 0.000000e+00
      outer loop
         vertex -1.149067e+00 -9.464181e+00 5.000000e+00
         vertex -2.604723e-01 -9.977212e+00 5.000000e+00
         vertex -1.149067e+00 -9.464181e+00 0.000000e+00
      endloop
   endfacet
   facet normal -1.736486e-01 9.848077e-01 0.000000e+00
      outer loop
         vertex 7.500000e-01 -9.799038e+00 5.000000e+00
         vertex 7.500000e-01 -9.799038e+00 0.000000e+00
         vertex -2.604723e-01 -9.977212e+00 0.000000e+00
      endloop
   endfacet
   facet normal -1.736486e-01 9.848077e-01 0.000000e+00
      outer loop
         vertex -2.604723e-01 -9.977212e+00 5.000000e+00
         vertex 7.500000e-01 -9.799038e+00 5.000000e+00
         vertex -2.604723e-01 -9.977212e+00 0.000000e+00
      endloop
   endfacet
   facet normal -7.660444e-01 6.427876e-01 0.000000e+00
      outer loop
         vertex 1.409539e+00 -9.013030e+00 5.000000e+00
         vertex 1.409539e+00 -9.013030e+00 0.000000e+00
         vertex 7.500000e-01 -9.799038e+00 0.000000e+00
      endloop
   endfacet
   facet normal -7.660444e-01 6.427876e-01 0.000000e+00
      outer loop
         vertex 7.500000e-01 -9.799038e+00 5.000000e+00
         vertex 1.409539e+00 -9.013030e+00 5.000000e+00
         vertex 7.500000e-01 -9.799038e+00 0.000000e+00
      endloop
   endfacet
   facet normal -1.000000e+00 0.000000e+00 0.000000e+00
      outer loop
         vertex 1.409539e+00 -7.986970e+00 5.000000e+00
         vertex 1.409539e+00 -7.986970e+00 0.000000e+00
         vertex 1.409539e+00 -9.013030e+00 0.000000e+00
      endloop
   endfacet
   facet normal -1.000000e+00 -0.000000e+00 0.000000e+00
      outer loop
         vertex 1.409539e+00 -9.013030e+00 5.000000e+00
         vertex 1.409539e+00 -7.986970e+00 5.000000e+00
         vertex 1.409539e+00 -9.013030e+00 0.000000e+00
      endloop
   endfacet
   facet normal -7.660444e-01 -6.427876e-01 0.000000e+00
      outer loop
         vertex 7.500000e-01 -7.200962e+00 5.000000e+00
         vertex 7.500000e-01 -7.200962e+00 0.000000e+00
         vertex 1.409539e+00 -7.986970e+00 0.000000e+00
      endloop
   endfacet
   facet normal -7.660444e-01 -6.427876e-01 0.000000e+00
      outer loop
         vertex 1.409539e+00 -7.986970e+00 5.000000e+00
         vertex 7.500000e-01 -7.200962e+00 5.000000e+00
         vertex 1.409539e+00 -7.986970e+00 0.000000e+00
      endloop
   endfacet
   facet normal -1.736482e-01 -9.848078e-01 0.000000e+00
      outer loop
         vertex -2.604723e-01 -7.022789e+00 5.000000e+00
         vertex -2.604723e-01 -7.022789e+00 0.000000e+00
         vertex 7.500000e-01 -7.200962e+00 0.000000e+00
      endloop
   endfacet
   facet normal -1.736482e-01 -9.848078e-01 0.000000e+00
      outer loop
         vertex 7.500000e-01 -7.200962e+00 5.000000e+00
         vertex -2.604723e-01 -7.022789e+00 5.000000e+00
         vertex 7.500000e-01 -7.200962e+00 0.000000e+00
      endloop
   endfacet
   facet normal 4.999999e-01 -8.660255e-01 0.000000e+00
      outer loop
         vertex -1.149067e+00 -7.535819e+00 5.000000e+00
         vertex -1.149067e+00 -7.535819e+00 0.000000e+00
         vertex -2.604723e-01 -7.022789e+00 0.000000e+00
      endloop
   endfacet
   facet normal 4.999999e-01 -8.660255e-01 0.000000e+00
      outer loop
         vertex -2.604723e-01 -7.022789e+00 5.000000e+00
         vertex -1.149067e+00 -7.535819e+00 5.000000e+00
         vertex -2.604723e-01 -7.022789e+00 0.000000e+00
      endloop
   endfacet
   facet normal 9.396926e-01 -3.420201e-01 0.000000e+00
      outer loop
         vertex -1.500000e+00 -8.500000e+00 5.000000e+00
         vertex -1.500000e+00 -8.500000e+00 0.000000e+00
         vertex -1.149067e+00 -7.535819e+00 0.000000e+00
      endloop
   endfacet
   facet normal 9.396926e-01 -3.420201e-01 0.000000e+00
      outer loop
         vertex -1.149067e+00 -7.535819e+00 5.000000e+00
         vertex -1.500000e+00 -8.500000e+00 5.000000e+00
         vertex -1.149067e+00 -7.535819e+00 0.000000e+00
      endloop
   endfacet
   facet normal 9.396926e-01 3.420201e-01 -0.000000e+00
      outer loop
         vertex -1.149067e+00 7.535819e+00 5.000000e+00
         vertex -1.149067e+00 7.535819e+00 0.000000e+00
         vertex -1.500000e+00 8.500000e+00 0.000000e+00
      endloop
   endfacet
   facet normal 9.396926e-01 3.420201e-01 0.000000e+00
      outer loop
         vertex -1.500000e+00 8.500000e+00 5.000000e+00
         vertex -1.149067e+00 7.535819e+00 5.000000e+00
         vertex -1.500000e+00 8.500000e+00 0.000000e+00
      endloop
   endfacet
   facet normal 4.999999e-01 8.660255e-01 -0.000000e+00
      outer loop
         vertex -2.604723e-01 7.022789e+00 5.000000e+00
         vertex -2.604723e-01 7.022789e+00 0.000000e+00
         vertex -1.149067e+00 7.535819e+00 0.000000e+00
      endloop
   endfacet
   facet normal 4.999999e-01 8.660255e-01 0.000000e+00
      outer loop
         vertex -1.149067e+00 7.535819e+00 5.000000e+00
         vertex -2.604723e-01 7.022789e+00 5.000000e+00
         vertex -1.149067e+00 7.535819e+00 0.000000e+00
      endloop
   endfacet
   facet normal -1.736482e-01 9.848078e-01 0.000000e+00
      outer loop
         vertex 7.500000e-01 7.200962e+00 5.000000e+00
         vertex 7.500000e-01 7.200962e+00 0.000000e+00
         vertex -2.604723e-01 7.022789e+00 0.000000e+00
      endloop
   endfacet
   facet normal -1.736482e-01 9.848078e-01 0.000000e+00
      outer loop
         vertex -2.604723e-01 7.022789e+00 5.000000e+00
         vertex 7.500000e-01 7.200962e+00 5.000000e+00
         vertex -2.604723e-01 7.022789e+00 0.000000e+00
      endloop
   endfacet
   facet normal -7.660444e-01 6.427876e-01 0.000000e+00
      outer loop
         vertex 1.409539e+00 7.986970e+00 5.000000e+00
         vertex 1.409539e+00 7.986970e+00 0.000000e+00
         vertex 7.500000e-01 7.200962e+00 0.000000e+00
      endloop
   endfacet
   facet normal -7.660444e-01 6.427876e-01 0.000000e+00
      outer loop
         vertex 7.500000e-01 7.200962e+00 5.000000e+00
         vertex 1.409539e+00 7.986970e+00 5.000000e+00
         vertex 7.500000e-01 7.200962e+00 0.000000e+00
      endloop
   endfacet
   facet normal -1.000000e+00 0.000000e+00 0.000000e+00
      outer loop
         vertex 1.409539e+00 9.013030e+00 5.000000e+00
         vertex 1.409539e+00 9.013030e+00 0.000000e+00
         vertex 1.409539e+00 7.986970e+00 0.000000e+00
      endloop
   endfacet
   facet normal -1.000000e+00 -0.000000e+00 0.000000e+00
      outer loop
         vertex 1.409539e+00 7.986970e+00 5.000000e+00
         vertex 1.409539e+00 9.013030e+00 5.000000e+00
         vertex 1.409539e+00 7.986970e+00 0.000000e+00
      endloop
   endfacet
   facet normal -7.660444e-01 -6.427876e-01 0.000000e+00
      outer loop
         vertex 7.500000e-01 9.799038e+00 5.000000e+00
         vertex 7.500000e-01 9.799038e+00 0.000000e+00
         vertex 1.409539e+00 9.013030e+00 0.000000e+00
      endloop
   endfacet
   facet normal -7.660444e-01 -6.427876e-01 0.000000e+00
      outer loop
         vertex 1.409539e+00 9.013030e+00 5.000000e+00
         vertex 7.500000e-01 9.799038e+00 5.000000e+00
         vertex 1.409539e+00 9.013030e+00 0.000000e+00
      endloop
   endfacet
   facet normal -1.736486e-01 -9.848077e-01 0.000000e+00
      outer loop
         vertex -2.604723e-01 9.977212e+00 5.000000e+00
         vertex -2.604723e-01 9.977212e+00 0.000000e+00
         vertex 7.500000e-01 9.799038e+00 0.000000e+00
      endloop
   endfacet
   facet normal -1.736486e-01 -9.848077e-01 0.000000e+00
      outer loop
         vertex 7.500000e-01 9.799038e+00 5.000000e+00
         vertex -2.604723e-01 9.977212e+00 5.000000e+00
         vertex 7.500000e-01 9.799038e+00 0.000000e+00
      endloop
   endfacet
   facet normal 5.000006e-01 -8.660251e-01 0.000000e+00
      outer loop
         vertex -1.149067e+00 9.464181e+00 5.000000e+00
         vertex -1.149067e+00 9.464181e+00 0.000000e+00
         vertex -2.604723e-01 9.977212e+00 0.000000e+00
      endloop
   endfacet
   facet normal 5.000006e-01 -8.660251e-01 0.000000e+00
      outer loop
         vertex -2.604723e-01 9.977212e+00 5.000000e+00
         vertex -1.149067e+00 9.464181e+00 5.000000e+00
         vertex -2.604723e-01 9.977212e+00 0.000000e+00
      endloop
   endfacet
   facet normal 9.396926e-01 -3.420203e-01 0.000000e+00
      outer loop
         vertex -1.500000e+00 8.500000e+00 5.000000e+00
         vertex -1.500000e+00 8.500000e+00 0.000000e+00
         vertex -1.149067e+00 9.464181e+00 0.000000e+00
      endloop
   endfacet
   facet normal 9.396926e-01 -3.420203e-01 0.000000e+00
      outer loop
         vertex -1.149067e+00 9.464181e+00 5.000000e+00
         vertex -1.500000e+00 8.500000e+00 5.000000e+00
         vertex -1.149067e+00 9.464181e+00 0.000000e+00
      endloop
   endfacet
   facet normal 0.000000e+00 1.000000e+00 -0.000000e+00
      outer loop
         vertex 5.200000e+01 1.200000e+01 5.000000e+00
         vertex 5.200000e+01 1.200000e+01 0.000000e+00
         vertex -5.200000e+01 1.200000e+01 0.000000e+00
      endloop
   endfacet
   facet normal 0.000000e+00 1.000000e+00 0.000000e+00
      outer loop
         vertex 5.200000e+01 1.200000e+01 5.000000e+00
         vertex -5.200000e+01 1.200000e+01 0.000000e+00
         vertex -5.200000e+01 1.200000e+01 5.000000e+00
      endloop
   endfacet
   facet normal 1.000000e+00 0.000000e+00 0.000000e+00
      outer loop
         vertex 5.200000e+01 -1.200000e+01 5.000000e+00
         vertex 5.200000e+01 -1.200000e+01 0.000000e+00
         vertex 5.200000e+01 1.200000e+01 0.000000e+00
      endloop
   endfacet
   facet normal 1.000000e+00 0.000000e+00 -0.000000e+00
      outer loop
         vertex 5.200000e+01 -1.200000e+01 5.000000e+00
         vertex 5.200000e+01 1.200000e+01 0.000000e+00
         vertex 5.200000e+01 1.200000e+01 5.000000e+00
      endloop
   endfacet
   facet normal 0.000000e+00 -1.000000e+00 0.000000e+00
      outer loop
         vertex -5.200000e+01 -1.200000e+01 5.000000e+00
         vertex -5.200000e+01 -1.200000e+01 0.000000e+00
         vertex 5.200000e+01 -1.200000e+01 0.000000e+00
      endloop
   endfacet
   facet normal 0.000000e+00 -1.000000e+00 0.000000e+00
      outer loop
         vertex -5.200000e+01 -1.200000e+01 5.000000e+00
         vertex 5.200000e+01 -1.200000e+01 0.000000e+00
         vertex 5.200000e+01 -1.200000e+01 5.000000e+00
      endloop
   endfacet
   facet normal -1.000000e+00 0.000000e+00 0.000000e+00
      outer loop
         vertex -5.200000e+01 1.200000e+01 5.000000e+00
         vertex -5.200000e+01 1.200000e+01 0.000000e+00
         vertex -5.200000e+01 -1.200000e+01 0.000000e+00
      endloop
   endfacet
   facet normal -1.000000e+00 0.000000e+00 0.000000e+00
      outer loop
         vertex -5.200000e+01 1.200000e+01 5.000000e+00
         vertex -5.200000e+01 -1.200000e+01 0.000000e+00
         vertex -5.200000e+01 -1.200000e+01 5.000000e+00
      endloop
   endfacet
   facet normal -9.396927e-01 -3.420199e-01 0.000000e+00
      outer loop
         vertex 4.964907e+01 -7.535819e+00 5.000000e+00
         vertex 4.964907e+01 -7.535819e+00 0.000000e+00
         vertex 5.000000e+01 -8.500000e+00 0.000000e+00
      endloop
   endfacet
   facet normal -9.396927e-01 -3.420199e-01 0.000000e+00
      outer loop
         vertex 5.000000e+01 -8.500000e+00 5.000000e+00
         vertex 4.964907e+01 -7.535819e+00 5.000000e+00
         vertex 5.000000e+01 -8.500000e+00 0.000000e+00
      endloop
   endfacet
   facet normal -4.999994e-01 -8.660258e-01 0.000000e+00
      outer loop
         vertex 4.876047e+01 -7.022789e+00 5.000000e+00
         vertex 4.876047e+01 -7.022789e+00 0.000000e+00
         vertex 4.964907e+01 -7.535819e+00 0.000000e+00
      endloop
   endfacet
   facet normal -4.999994e-01 -8.660258e-01 0.000000e+00
      outer loop
         vertex 4.964907e+01 -7.535819e+00 5.000000e+00
         vertex 4.876047e+01 -7.022789e+00 5.000000e+00
         vertex 4.964907e+01 -7.535819e+00 0.000000e+00
      endloop
   endfacet
   facet normal 1.736483e-01 -9.848077e-01 0.000000e+00
      outer loop
         vertex 4.775000e+01 -7.200962e+00 5.000000e+00
         vertex 4.775000e+01 -7.200962e+00 0.000000e+00
         vertex 4.876047e+01 -7.022789e+00 0.000000e+00
      endloop
   endfacet
   facet normal 1.736483e-01 -9.848077e-01 0.000000e+00
      outer loop
         vertex 4.876047e+01 -7.022789e+00 5.000000e+00
         vertex 4.775000e+01 -7.200962e+00 5.000000e+00
         vertex 4.876047e+01 -7.022789e+00 0.000000e+00
      endloop
   endfacet
   facet normal 7.660448e-01 -6.427872e-01 0.000000e+00
      outer loop
         vertex 4.709046e+01 -7.986970e+00 5.000000e+00
         vertex 4.709046e+01 -7.986970e+00 0.000000e+00
         vertex 4.775000e+01 -7.200962e+00 0.000000e+00
      endloop
   endfacet
   facet normal 7.660448e-01 -6.427872e-01 0.000000e+00
      outer loop
         vertex 4.775000e+01 -7.200962e+00 5.000000e+00
         vertex 4.709046e+01 -7.986970e+00 5.000000e+00
         vertex 4.775000e+01 -7.200962e+00 0.000000e+00
      endloop
   endfacet
   facet normal 1.000000e+00 0.000000e+00 0.000000e+00
      outer loop
         vertex 4.709046e+01 -9.013030e+00 5.000000e+00
         vertex 4.709046e+01 -9.013030e+00 0.000000e+00
         vertex 4.709046e+01 -7.986970e+00 0.000000e+00
      endloop
   endfacet
   facet normal 1.000000e+00 -0.000000e+00 0.000000e+00
      outer loop
         vertex 4.709046e+01 -7.986970e+00 5.000000e+00
         vertex 4.709046e+01 -9.013030e+00 5.000000e+00
         vertex 4.709046e+01 -7.986970e+00 0.000000e+00
      endloop
   endfacet
   facet normal 7.660448e-01 6.427872e-01 -0.000000e+00
      outer loop
         vertex 4.775000e+01 -9.799038e+00 5.000000e+00
         vertex 4.775000e+01 -9.799038e+00 0.000000e+00
         vertex 4.709046e+01 -9.013030e+00 0.000000e+00
      endloop
   endfacet
   facet normal 7.660448e-01 6.427872e-01 0.000000e+00
      outer loop
         vertex 4.709046e+01 -9.013030e+00 5.000000e+00
         vertex 4.775000e+01 -9.799038e+00 5.000000e+00
         vertex 4.709046e+01 -9.013030e+00 0.000000e+00
      endloop
   endfacet
   facet normal 1.736488e-01 9.848076e-01 -0.000000e+00
      outer loop
         vertex 4.876047e+01 -9.977212e+00 5.000000e+00
         vertex 4.876047e+01 -9.977212e+00 0.000000e+00
         vertex 4.775000e+01 -9.799038e+00 0.000000e+00
      endloop
   endfacet
   facet normal 1.736488e-01 9.848076e-01 0.000000e+00
      outer loop
         vertex 4.775000e+01 -9.799038e+00 5.000000e+00
         vertex 4.876047e+01 -9.977212e+00 5.000000e+00
         vertex 4.775000e+01 -9.799038e+00 0.000000e+00
      endloop
   endfacet
   facet normal -5.000001e-01 8.660254e-01 0.000000e+00
      outer loop
         vertex 4.964907e+01 -9.464181e+00 5.000000e+00
         vertex 4.964907e+01 -9.464181e+00 0.000000e+00
         vertex 4.876047e+01 -9.977212e+00 0.000000e+00
      endloop
   endfacet
   facet normal -5.000001e-01 8.660254e-01 0.000000e+00
      outer loop
         vertex 4.876047e+01 -9.977212e+00 5.000000e+00
         vertex 4.964907e+01 -9.464181e+00 5.000000e+00
         vertex 4.876047e+01 -9.977212e+00 0.000000e+00
      endloop
   endfacet
   facet normal -9.396926e-01 3.420201e-01 0.000000e+00
      outer loop
         vertex 5.000000e+01 -8.500000e+00 5.000000e+00
         vertex 5.000000e+01 -8.500000e+00 0.000000e+00
         vertex 4.964907e+01 -9.464181e+00 0.000000e+00
      endloop
   endfacet
   facet normal -9.396926e-01 3.420201e-01 0.000000e+00
      outer loop
         vertex 4.964907e+01 -9.464181e+00 5.000000e+00
         vertex 5.000000e+01 -8.500000e+00 5.000000e+00
         vertex 4.964907e+01 -9.464181e+00 0.000000e+00
      endloop
   endfacet
   facet normal -9.396926e-01 -3.420201e-01 0.000000e+00
      outer loop
         vertex 4.964907e+01 9.464181e+00 5.000000e+00
         vertex 4.964907e+01 9.464181e+00 0.000000e+00
         vertex 5.000000e+01 8.500000e+00 0.000000e+00
      endloop
   endfacet
   facet normal -9.396926e-01 -3.420201e-01 0.000000e+00
      outer loop
         vertex 5.000000e+01 8.500000e+00 5.000000e+00
         vertex 4.964907e+01 9.464181e+00 5.000000e+00
         vertex 5.000000e+01 8.500000e+00 0.000000e+00
      endloop
   endfacet
   facet normal -5.000001e-01 -8.660254e-01 0.000000e+00
      outer loop
         vertex 4.876047e+01 9.977212e+00 5.000000e+00
         vertex 4.876047e+01 9.977212e+00 0.000000e+00
         vertex 4.964907e+01 9.464181e+00 0.000000e+00
      endloop
   endfacet
   facet normal -5.000001e-01 -8.660254e-01 0.000000e+00
      outer loop
         vertex 4.964907e+01 9.464181e+00 5.000000e+00
         vertex 4.876047e+01 9.977212e+00 5.000000e+00
         vertex 4.964907e+01 9.464181e+00 0.000000e+00
      endloop
   endfacet
   facet normal 1.736488e-01 -9.848076e-01 0.000000e+00
      outer loop
         vertex 4.775000e+01 9.799038e+00 5.000000e+00
         vertex 4.775000e+01 9.799038e+00 0.000000e+00
         vertex 4.876047e+01 9.977212e+00 0.000000e+00
      endloop
   endfacet
   facet normal 1.736488e-01 -9.848076e-01 0.000000e+00
      outer loop
         vertex 4.876047e+01 9.977212e+00 5.000000e+00
         vertex 4.775000e+01 9.799038e+00 5.000000e+00
         vertex 4.876047e+01 9.977212e+00 0.000000e+00
      endloop
   endfacet
   facet normal 7.660448e-01 -6.427872e-01 0.000000e+00
      outer loop
         vertex 4.709046e+01 9.013030e+00 5.000000e+00
         vertex 4.709046e+01 9.013030e+00 0.000000e+00
         vertex 4.775000e+01 9.799038e+00 0.000000e+00
      endloop
   endfacet
   facet normal 7.660448e-01 -6.427872e-01 0.000000e+00
      outer loop
         vertex 4.775000e+01 9.799038e+00 5.000000e+00
         vertex 4.709046e+01 9.013030e+00 5.000000e+00
         vertex 4.775000e+01 9.799038e+00 0.000000e+00
      endloop
   endfacet
   facet normal 1.000000e+00 0.000000e+00 0.000000e+00
      outer loop
         vertex 4.709046e+01 7.986970e+00 5.000000e+00
         vertex 4.709046e+01 7.986970e+00 0.000000e+00
         vertex 4.709046e+01 9.013030e+00 0.000000e+00
      endloop
   endfacet
   facet normal 1.000000e+00 -0.000000e+00 0.000000e+00
      outer loop
         vertex 4.709046e+01 9.013030e+00 5.000000e+00
         vertex 4.709046e+01 7.986970e+00 5.000000e+00
         vertex 4.709046e+01 9.013030e+00 0.000000e+00
      endloop
   endfacet
   facet normal 7.660448e-01 6.427872e-01 -0.000000e+00
      outer loop
         vertex 4.775000e+01 7.200962e+00 5.000000e+00
         vertex 4.775000e+01 7.200962e+00 0.000000e+00
         vertex 4.709046e+01 7.986970e+00 0.000000e+00
      endloop
   endfacet
   facet normal 7.660448e-01 6.427872e-01 0.000000e+00
      outer loop
         vertex 4.709046e+01 7.986970e+00 5.000000e+00
         vertex 4.775000e+01 7.200962e+00 5.000000e+00
         vertex 4.709046e+01 7.986970e+00 0.000000e+00
      endloop
   endfacet
   facet normal 1.736483e-01 9.848077e-01 -0.000000e+00
      outer loop
         vertex 4.876047e+01 7.022789e+00 5.000000e+00
         vertex 4.876047e+01 7.022789e+00 0.000000e+00
         vertex 4.775000e+01 7.200962e+00 0.000000e+00
      endloop
   endfacet
   facet normal 1.736483e-01 9.848077e-01 0.000000e+00
      outer loop
         vertex 4.775000e+01 7.200962e+00 5.000000e+00
         vertex 4.876047e+01 7.022789e+00 5.000000e+00
         vertex 4.775000e+01 7.200962e+00 0.000000e+00
      endloop
   endfacet
   facet normal -4.999994e-01 8.660258e-01 0.000000e+00
      outer loop
         vertex 4.964907e+01 7.535819e+00 5.000000e+00
         vertex 4.964907e+01 7.535819e+00 0.000000e+00
         vertex 4.876047e+01 7.022789e+00 0.000000e+00
      endloop
   endfacet
   facet normal -4.999994e-01 8.660258e-01 0.000000e+00
      outer loop
         vertex 4.876047e+01 7.022789e+00 5.000000e+00
         vertex 4.964907e+01 7.535819e+00 5.000000e+00
         vertex 4.876047e+01 7.022789e+00 0.000000e+00
      endloop
   endfacet
   facet normal -9.396927e-01 3.420199e-01 0.000000e+00
      outer loop
         vertex 5.000000e+01 8.500000e+00 5.000000e+00
         vertex 5.000000e+01 8.500000e+00 0.000000e+00
         vertex 4.964907e+01 7.535819e+00 0.000000e+00
      endloop
   endfacet
   facet normal -9.396927e-01 3.420199e-01 0.000000e+00
      outer loop
         vertex 4.964907e+01 7.535819e+00 5.000000e+00
         vertex 5.000000e+01 8.500000e+00 5.000000e+00
         vertex 4.964907e+01 7.535819e+00 0.000000e+00
      endloop
   endfacet
   facet normal -9.396927e-01 -3.420199e-01 0.000000e+00
      outer loop
         vertex -4.735093e+01 -7.535819e+00 5.000000e+00
         vertex -4.735093e+01 -7.535819e+00 0.000000e+00
         vertex -4.700000e+01 -8.500000e+00 0.000000e+00
      endloop
   endfacet
   facet normal -9.396927e-01 -3.420199e-01 0.000000e+00
      outer loop
         vertex -4.700000e+01 -8.500000e+00 5.000000e+00
         vertex -4.735093e+01 -7.535819e+00 5.000000e+00
         vertex -4.700000e+01 -8.500000e+00 0.000000e+00
      endloop
   endfacet
   facet normal -4.999994e-01 -8.660258e-01 0.000000e+00
      outer loop
         vertex -4.823953e+01 -7.022789e+00 5.000000e+00
         vertex -4.823953e+01 -7.022789e+00 0.000000e+00
         vertex -4.735093e+01 -7.535819e+00 0.000000e+00
      endloop
   endfacet
   facet normal -4.999994e-01 -8.660258e-01 0.000000e+00
      outer loop
         vertex -4.735093e+01 -7.535819e+00 5.000000e+00
         vertex -4.823953e+01 -7.022789e+00 5.000000e+00
         vertex -4.735093e+01 -7.535819e+00 0.000000e+00
      endloop
   endfacet
   facet normal 1.736483e-01 -9.848077e-01 0.000000e+00
      outer loop
         vertex -4.925000e+01 -7.200962e+00 5.000000e+00
         vertex -4.925000e+01 -7.200962e+00 0.000000e+00
         vertex -4.823953e+01 -7.022789e+00 0.000000e+00
      endloop
   endfacet
   facet normal 1.736483e-01 -9.848077e-01 0.000000e+00
      outer loop
         vertex -4.823953e+01 -7.022789e+00 5.000000e+00
         vertex -4.925000e+01 -7.200962e+00 5.000000e+00
         vertex -4.823953e+01 -7.022789e+00 0.000000e+00
      endloop
   endfacet
   facet normal 7.660448e-01 -6.427872e-01 0.000000e+00
      outer loop
         vertex -4.990954e+01 -7.986970e+00 5.000000e+00
         vertex -4.990954e+01 -7.986970e+00 0.000000e+00
         vertex -4.925000e+01 -7.200962e+00 0.000000e+00
      endloop
   endfacet
   facet normal 7.660448e-01 -6.427872e-01 0.000000e+00
      outer loop
         vertex -4.925000e+01 -7.200962e+00 5.000000e+00
         vertex -4.990954e+01 -7.986970e+00 5.000000e+00
         vertex -4.925000e+01 -7.200962e+00 0.000000e+00
      endloop
   endfacet
   facet normal 1.000000e+00 0.000000e+00 0.000000e+00
      outer loop
         vertex -4.990954e+01 -9.013030e+00 5.000000e+00
         vertex -4.990954e+01 -9.013030e+00 0.000000e+00
         vertex -4.990954e+01 -7.986970e+00 0.000000e+00
      endloop
   endfacet
   facet normal 1.000000e+00 -0.000000e+00 0.000000e+00
      outer loop
         vertex -4.990954e+01 -7.986970e+00 5.000000e+00
         vertex -4.990954e+01 -9.013030e+00 5.000000e+00
         vertex -4.990954e+01 -7.986970e+00 0.000000e+00
      endloop
   endfacet
   facet normal 7.660448e-01 6.427872e-01 -0.000000e+00
      outer loop
         vertex -4.925000e+01 -9.799038e+00 5.000000e+00
         vertex -4.925000e+01 -9.799038e+00 0.000000e+00
         vertex -4.990954e+01 -9.013030e+00 0.000000e+00
      endloop
   endfacet
   facet normal 7.660448e-01 6.427872e-01 0.000000e+00
      outer loop
         vertex -4.990954e+01 -9.013030e+00 5.000000e+00
         vertex -4.925000e+01 -9.799038e+00 5.000000e+00
         vertex -4.990954e+01 -9.013030e+00 0.000000e+00
      endloop
   endfacet
   facet normal 1.736488e-01 9.848076e-01 -0.000000e+00
      outer loop
         vertex -4.823953e+01 -9.977212e+00 5.000000e+00
         vertex -4.823953e+01 -9.977212e+00 0.000000e+00
         vertex -4.925000e+01 -9.799038e+00 0.000000e+00
      endloop
   endfacet
   facet normal 1.736488e-01 9.848076e-01 0.000000e+00
      outer loop
         vertex -4.925000e+01 -9.799038e+00 5.000000e+00
         vertex -4.823953e+01 -9.977212e+00 5.000000e+00
         vertex -4.925000e+01 -9.799038e+00 0.000000e+00
      endloop
   endfacet
   facet normal -5.000001e-01 8.660254e-01 0.000000e+00
      outer loop
         vertex -4.735093e+01 -9.464181e+00 5.000000e+00
         vertex -4.735093e+01 -9.464181e+00 0.000000e+00
         vertex -4.823953e+01 -9.977212e+00 0.000000e+00
      endloop
   endfacet
   facet normal -5.000001e-01 8.660254e-01 0.000000e+00
      outer loop
         vertex -4.823953e+01 -9.977212e+00 5.000000e+00
         vertex -4.735093e+01 -9.464181e+00 5.000000e+00
         vertex -4.823953e+01 -9.977212e+00 0.000000e+00
      endloop
   endfacet
   facet normal -9.396926e-01 3.420201e-01 0.000000e+00
      outer loop
         vertex -4.700000e+01 -8.500000e+00 5.000000e+00
         vertex -4.700000e+01 -8.500000e+00 0.000000e+00
         vertex -4.735093e+01 -9.464181e+00 0.000000e+00
      endloop
   endfacet
   facet normal -9.396926e-01 3.420201e-01 0.000000e+00
      outer loop
         vertex -4.735093e+01 -9.464181e+00 5.000000e+00
         vertex -4.700000e+01 -8.500000e+00 5.000000e+00
         vertex -4.735093e+01 -9.464181e+00 0.000000e+00
      endloop
   endfacet
   facet normal -9.396926e-01 -3.420201e-01 0.000000e+00
      outer loop
         vertex -4.735093e+01 9.464181e+00 5.000000e+00
         vertex -4.735093e+01 9.464181e+00 0.000000e+00
         vertex -4.700000e+01 8.500000e+00 0.000000e+00
      endloop
   endfacet
   facet normal -9.396926e-01 -3.420201e-01 0.000000e+00
      outer loop
         vertex -4.700000e+01 8.500000e+00 5.000000e+00
         vertex -4.735093e+01 9.464181e+00 5.000000e+00
         vertex -4.700000e+01 8.500000e+00 0.000000e+00
      endloop
   endfacet
   facet normal -5.000001e-01 -8.660254e-01 0.000000e+00
      outer loop
         vertex -4.823953e+01 9.977212e+00 5.000000e+00
         vertex -4.823953e+01 9.977212e+00 0.000000e+00
         vertex -4.735093e+01 9.464181e+00 0.000000e+00
      endloop
   endfacet
   facet normal -5.000001e-01 -8.660254e-01 0.000000e+00
      outer loop
         vertex -4.735093e+01 9.464181e+00 5.000000e+00
         vertex -4.823953e+01 9.977212e+00 5.000000e+00
         vertex -4.735093e+01 9.464181e+00 0.000000e+00
      endloop
   endfacet
   facet normal 1.736488e-01 -9.848076e-01 0.000000e+00
      outer loop
         vertex -4.925000e+01 9.799038e+00 5.000000e+00
         vertex -4.925000e+01 9.799038e+00 0.000000e+00
         vertex -4.823953e+01 9.977212e+00 0.000000e+00
      endloop
   endfacet
   facet normal 1.736488e-01 -9.848076e-01 0.000000e+00
      outer loop
         vertex -4.823953e+01 9.977212e+00 5.000000e+00
         vertex -4.925000e+01 9.799038e+00 5.000000e+00
         vertex -4.823953e+01 9.977212e+00 0.000000e+00
      endloop
   endfacet
   facet normal 7.660448e-01 -6.427872e-01 0.000000e+00
      outer loop
         vertex -4.990954e+01 9.013030e+00 5.000000e+00
         vertex -4.990954e+01 9.013030e+00 0.000000e+00
         vertex -4.925000e+01 9.799038e+00 0.000000e+00
      endloop
   endfacet
   facet normal 7.660448e-01 -6.427872e-01 0.000000e+00
      outer loop
         vertex -4.925000e+01 9.799038e+00 5.000000e+00
         vertex -4.990954e+01 9.013030e+00 5.000000e+00
         vertex -4.925000e+01 9.799038e+00 0.000000e+00
      endloop
   endfacet
   facet normal 1.000000e+00 0.000000e+00 0.000000e+00
      outer loop
         vertex -4.990954e+01 7.986970e+00 5.000000e+00
         vertex -4.990954e+01 7.986970e+00 0.000000e+00
         vertex -4.990954e+01 9.013030e+00 0.000000e+00
      endloop
   endfacet
   facet normal 1.000000e+00 -0.000000e+00 0.000000e+00
      outer loop
         vertex -4.990954e+01 9.013030e+00 5.000000e+00
         vertex -4.990954e+01 7.986970e+00 5.000000e+00
         vertex -4.990954e+01 9.013030e+00 0.000000e+00
      endloop
   endfacet
   facet normal 7.660448e-01 6.427872e-01 -0.000000e+00
      outer loop
         vertex -4.925000e+01 7.200962e+00 5.000000e+00
         vertex -4.925000e+01 7.200962e+00 0.000000e+00
         vertex -4.990954e+01 7.986970e+00 0.000000e+00
      endloop
   endfacet
   facet normal 7.660448e-01 6.427872e-01 0.000000e+00
      outer loop
         vertex -4.990954e+01 7.986970e+00 5.000000e+00
         vertex -4.925000e+01 7.200962e+00 5.000000e+00
         vertex -4.990954e+01 7.986970e+00 0.000000e+00
      endloop
   endfacet
   facet normal 1.736483e-01 9.848077e-01 -0.000000e+00
      outer loop
         vertex -4.823953e+01 7.022789e+00 5.000000e+00
         vertex -4.823953e+01 7.022789e+00 0.000000e+00
         vertex -4.925000e+01 7.200962e+00 0.000000e+00
      endloop
   endfacet
   facet normal 1.736483e-01 9.848077e-01 0.000000e+00
      outer loop
         vertex -4.925000e+01 7.200962e+00 5.000000e+00
         vertex -4.823953e+01 7.022789e+00 5.000000e+00
         vertex -4.925000e+01 7.200962e+00 0.000000e+00
      endloop
   endfacet
   facet normal -4.999994e-01 8.660258e-01 0.000000e+00
      outer loop
         vertex -4.735093e+01 7.535819e+00 5.000000e+00
         vertex -4.735093e+01 7.535819e+00 0.000000e+00
         vertex -4.823953e+01 7.022789e+00 0.000000e+00
      endloop
   endfacet
   facet normal -4.999994e-01 8.660258e-01 0.000000e+00
      outer loop
         vertex -4.823953e+01 7.022789e+00 5.000000e+00
         vertex -4.735093e+01 7.535819e+00 5.000000e+00
         vertex -4.823953e+01 7.022789e+00 0.000000e+00
      endloop
   endfacet
   facet normal -9.396927e-01 3.420199e-01 0.000000e+00
      outer loop
         vertex -4.700000e+01 8.500000e+00 5.000000e+00
         vertex -4.700000e+01 8.500000e+00 0.000000e+00
         vertex -4.735093e+01 7.535819e+00 0.000000e+00
      endloop
   endfacet
   facet normal -9.396927e-01 3.420199e-01 0.000000e+00
      outer loop
         vertex -4.735093e+01 7.535819e+00 5.000000e+00
         vertex -4.700000e+01 8.500000e+00 5.000000e+00
         vertex -4.735093e+01 7.535819e+00 0.000000e+00
      endloop
   endfacet
endsolid
