solid 
   facet normal -9.876883e-01 0.000000e+00 1.564344e-01
      outer loop
         vertex -8.500000e+00 6.373979e-32 -1.040950e-15
         vertex -8.083981e+00 -1.608356e-16 2.626644e+00
         vertex -8.083981e+00 1.390000e+02 2.626644e+00
      endloop
   endfacet
   facet normal -9.876883e-01 -9.610900e-18 1.564344e-01
      outer loop
         vertex -8.500000e+00 6.373979e-32 -1.040950e-15
         vertex -8.083981e+00 1.390000e+02 2.626644e+00
         vertex -8.500000e+00 1.390000e+02 7.470345e-15
      endloop
   endfacet
   facet normal -8.910065e-01 0.000000e+00 4.539905e-01
      outer loop
         vertex -8.083981e+00 -1.608356e-16 2.626644e+00
         vertex -6.876645e+00 -3.059275e-16 4.996175e+00
         vertex -6.876645e+00 1.390000e+02 4.996175e+00
      endloop
   endfacet
   facet normal -8.910065e-01 0.000000e+00 4.539905e-01
      outer loop
         vertex -8.083981e+00 -1.608356e-16 2.626644e+00
         vertex -6.876645e+00 1.390000e+02 4.996175e+00
         vertex -8.083981e+00 1.390000e+02 2.626644e+00
      endloop
   endfacet
   facet normal -7.071068e-01 0.000000e+00 7.071068e-01
      outer loop
         vertex -6.876645e+00 -3.059275e-16 4.996175e+00
         vertex -4.996175e+00 -4.210730e-16 6.876645e+00
         vertex -4.996175e+00 1.390000e+02 6.876645e+00
      endloop
   endfacet
   facet normal -7.071068e-01 0.000000e+00 7.071068e-01
      outer loop
         vertex -6.876645e+00 -3.059275e-16 4.996175e+00
         vertex -4.996175e+00 1.390000e+02 6.876645e+00
         vertex -6.876645e+00 1.390000e+02 4.996175e+00
      endloop
   endfacet
   facet normal -4.539905e-01 0.000000e+00 8.910065e-01
      outer loop
         vertex -4.996175e+00 -4.210730e-16 6.876645e+00
         vertex -2.626644e+00 -4.950010e-16 8.083981e+00
         vertex -2.626644e+00 1.390000e+02 8.083981e+00
      endloop
   endfacet
   facet normal -4.539905e-01 0.000000e+00 8.910065e-01
      outer loop
         vertex -4.996175e+00 -4.210730e-16 6.876645e+00
         vertex -2.626644e+00 1.390000e+02 8.083981e+00
         vertex -4.996175e+00 1.390000e+02 6.876645e+00
      endloop
   endfacet
   facet normal -1.564344e-01 0.000000e+00 9.876883e-01
      outer loop
         vertex -2.626644e+00 -4.950010e-16 8.083981e+00
         vertex -1.561425e-15 -5.204749e-16 8.500000e+00
         vertex -1.561425e-15 1.390000e+02 8.500000e+00
      endloop
   endfacet
   facet normal -1.564344e-01 0.000000e+00 9.876883e-01
      outer loop
         vertex -2.626644e+00 -4.950010e-16 8.083981e+00
         vertex -1.561425e-15 1.390000e+02 8.500000e+00
         vertex -2.626644e+00 1.390000e+02 8.083981e+00
      endloop
   endfacet
   facet normal 1.564344e-01 -0.000000e+00 9.876883e-01
      outer loop
         vertex -1.561425e-15 -5.204749e-16 8.500000e+00
         vertex 2.626644e+00 -4.950010e-16 8.083981e+00
         vertex 2.626644e+00 1.390000e+02 8.083981e+00
      endloop
   endfacet
   facet normal 1.564344e-01 0.000000e+00 9.876883e-01
      outer loop
         vertex -1.561425e-15 -5.204749e-16 8.500000e+00
         vertex 2.626644e+00 1.390000e+02 8.083981e+00
         vertex -1.561425e-15 1.390000e+02 8.500000e+00
      endloop
   endfacet
   facet normal 4.539905e-01 -0.000000e+00 8.910065e-01
      outer loop
         vertex 2.626644e+00 -4.950010e-16 8.083981e+00
         vertex 4.996175e+00 -4.210730e-16 6.876645e+00
         vertex 4.996175e+00 1.390000e+02 6.876645e+00
      endloop
   endfacet
   facet normal 4.539905e-01 0.000000e+00 8.910065e-01
      outer loop
         vertex 2.626644e+00 -4.950010e-16 8.083981e+00
         vertex 4.996175e+00 1.390000e+02 6.876645e+00
         vertex 2.626644e+00 1.390000e+02 8.083981e+00
      endloop
   endfacet
   facet normal 7.071068e-01 -0.000000e+00 7.071068e-01
      outer loop
         vertex 4.996175e+00 -4.210730e-16 6.876645e+00
         vertex 6.876645e+00 -3.059275e-16 4.996175e+00
         vertex 6.876645e+00 1.390000e+02 4.996175e+00
      endloop
   endfacet
   facet normal 7.071068e-01 0.000000e+00 7.071068e-01
      outer loop
         vertex 4.996175e+00 -4.210730e-16 6.876645e+00
         vertex 6.876645e+00 1.390000e+02 4.996175e+00
         vertex 4.996175e+00 1.390000e+02 6.876645e+00
      endloop
   endfacet
   facet normal 8.910065e-01 -0.000000e+00 4.539905e-01
      outer loop
         vertex 6.876645e+00 -3.059275e-16 4.996175e+00
         vertex 8.083981e+00 -1.608356e-16 2.626644e+00
         vertex 8.083981e+00 1.390000e+02 2.626644e+00
      endloop
   endfacet
   facet normal 8.910065e-01 0.000000e+00 4.539905e-01
      outer loop
         vertex 6.876645e+00 -3.059275e-16 4.996175e+00
         vertex 8.083981e+00 1.390000e+02 2.626644e+00
         vertex 6.876645e+00 1.390000e+02 4.996175e+00
      endloop
   endfacet
   facet normal 9.876883e-01 -9.578845e-18 1.564344e-01
      outer loop
         vertex 8.083981e+00 -1.608356e-16 2.626644e+00
         vertex 8.500000e+00 -1.274796e-31 2.081900e-15
         vertex 8.500000e+00 1.390000e+02 1.059319e-14
      endloop
   endfacet
   facet normal 9.876883e-01 0.000000e+00 1.564344e-01
      outer loop
         vertex 8.083981e+00 -1.608356e-16 2.626644e+00
         vertex 8.500000e+00 1.390000e+02 1.059319e-14
         vertex 8.083981e+00 1.390000e+02 2.626644e+00
      endloop
   endfacet
   facet normal 9.876883e-01 0.000000e+00 -1.564344e-01
      outer loop
         vertex 8.500000e+00 -1.274796e-31 2.081900e-15
         vertex 8.083981e+00 1.608356e-16 -2.626644e+00
         vertex 8.083981e+00 1.390000e+02 -2.626644e+00
      endloop
   endfacet
   facet normal 9.876883e-01 9.610900e-18 -1.564344e-01
      outer loop
         vertex 8.500000e+00 -1.274796e-31 2.081900e-15
         vertex 8.083981e+00 1.390000e+02 -2.626644e+00
         vertex 8.500000e+00 1.390000e+02 1.059319e-14
      endloop
   endfacet
   facet normal 8.910065e-01 0.000000e+00 -4.539905e-01
      outer loop
         vertex 8.083981e+00 1.608356e-16 -2.626644e+00
         vertex 6.876645e+00 3.059275e-16 -4.996175e+00
         vertex 6.876645e+00 1.390000e+02 -4.996175e+00
      endloop
   endfacet
   facet normal 8.910065e-01 0.000000e+00 -4.539905e-01
      outer loop
         vertex 8.083981e+00 1.608356e-16 -2.626644e+00
         vertex 6.876645e+00 1.390000e+02 -4.996175e+00
         vertex 8.083981e+00 1.390000e+02 -2.626644e+00
      endloop
   endfacet
   facet normal 7.071068e-01 0.000000e+00 -7.071068e-01
      outer loop
         vertex 6.876645e+00 3.059275e-16 -4.996175e+00
         vertex 4.996175e+00 4.210730e-16 -6.876645e+00
         vertex 4.996175e+00 1.390000e+02 -6.876645e+00
      endloop
   endfacet
   facet normal 7.071068e-01 0.000000e+00 -7.071068e-01
      outer loop
         vertex 6.876645e+00 3.059275e-16 -4.996175e+00
         vertex 4.996175e+00 1.390000e+02 -6.876645e+00
         vertex 6.876645e+00 1.390000e+02 -4.996175e+00
      endloop
   endfacet
   facet normal 4.539905e-01 0.000000e+00 -8.910065e-01
      outer loop
         vertex 4.996175e+00 4.210730e-16 -6.876645e+00
         vertex 2.626644e+00 4.950010e-16 -8.083981e+00
         vertex 2.626644e+00 1.390000e+02 -8.083981e+00
      endloop
   endfacet
   facet normal 4.539905e-01 0.000000e+00 -8.910065e-01
      outer loop
         vertex 4.996175e+00 4.210730e-16 -6.876645e+00
         vertex 2.626644e+00 1.390000e+02 -8.083981e+00
         vertex 4.996175e+00 1.390000e+02 -6.876645e+00
      endloop
   endfacet
   facet normal 1.564344e-01 0.000000e+00 -9.876883e-01
      outer loop
         vertex 2.626644e+00 4.950010e-16 -8.083981e+00
         vertex 2.602374e-15 5.204749e-16 -8.500000e+00
         vertex 2.602374e-15 1.390000e+02 -8.500000e+00
      endloop
   endfacet
   facet normal 1.564344e-01 0.000000e+00 -9.876883e-01
      outer loop
         vertex 2.626644e+00 4.950010e-16 -8.083981e+00
         vertex 2.602374e-15 1.390000e+02 -8.500000e+00
         vertex 2.626644e+00 1.390000e+02 -8.083981e+00
      endloop
   endfacet
   facet normal -1.564344e-01 0.000000e+00 -9.876883e-01
      outer loop
         vertex 2.602374e-15 5.204749e-16 -8.500000e+00
         vertex -2.626644e+00 4.950010e-16 -8.083981e+00
         vertex -2.626644e+00 1.390000e+02 -8.083981e+00
      endloop
   endfacet
   facet normal -1.564344e-01 0.000000e+00 -9.876883e-01
      outer loop
         vertex 2.602374e-15 5.204749e-16 -8.500000e+00
         vertex -2.626644e+00 1.390000e+02 -8.083981e+00
         vertex 2.602374e-15 1.390000e+02 -8.500000e+00
      endloop
   endfacet
   facet normal -4.539905e-01 0.000000e+00 -8.910065e-01
      outer loop
         vertex -2.626644e+00 4.950010e-16 -8.083981e+00
         vertex -4.996175e+00 4.210730e-16 -6.876645e+00
         vertex -4.996175e+00 1.390000e+02 -6.876645e+00
      endloop
   endfacet
   facet normal -4.539905e-01 0.000000e+00 -8.910065e-01
      outer loop
         vertex -2.626644e+00 4.950010e-16 -8.083981e+00
         vertex -4.996175e+00 1.390000e+02 -6.876645e+00
         vertex -2.626644e+00 1.390000e+02 -8.083981e+00
      endloop
   endfacet
   facet normal -7.071068e-01 0.000000e+00 -7.071068e-01
      outer loop
         vertex -4.996175e+00 4.210730e-16 -6.876645e+00
         vertex -6.876645e+00 3.059275e-16 -4.996175e+00
         vertex -6.876645e+00 1.390000e+02 -4.996175e+00
      endloop
   endfacet
   facet normal -7.071068e-01 0.000000e+00 -7.071068e-01
      outer loop
         vertex -4.996175e+00 4.210730e-16 -6.876645e+00
         vertex -6.876645e+00 1.390000e+02 -4.996175e+00
         vertex -4.996175e+00 1.390000e+02 -6.876645e+00
      endloop
   endfacet
   facet normal -8.910065e-01 0.000000e+00 -4.539905e-01
      outer loop
         vertex -6.876645e+00 3.059275e-16 -4.996175e+00
         vertex -8.083981e+00 1.608356e-16 -2.626644e+00
         vertex -8.083981e+00 1.390000e+02 -2.626644e+00
      endloop
   endfacet
   facet normal -8.910065e-01 0.000000e+00 -4.539905e-01
      outer loop
         vertex -6.876645e+00 3.059275e-16 -4.996175e+00
         vertex -8.083981e+00 1.390000e+02 -2.626644e+00
         vertex -6.876645e+00 1.390000e+02 -4.996175e+00
      endloop
   endfacet
   facet normal -9.876883e-01 9.578845e-18 -1.564344e-01
      outer loop
         vertex -8.083981e+00 1.608356e-16 -2.626644e+00
         vertex -8.500000e+00 1.912194e-31 -3.122849e-15
         vertex -8.500000e+00 1.390000e+02 5.388446e-15
      endloop
   endfacet
   facet normal -9.876883e-01 0.000000e+00 -1.564344e-01
      outer loop
         vertex -8.083981e+00 1.608356e-16 -2.626644e+00
         vertex -8.500000e+00 1.390000e+02 5.388446e-15
         vertex -8.083981e+00 1.390000e+02 -2.626644e+00
      endloop
   endfacet
   facet normal 0.000000e+00 1.000000e+00 0.000000e+00
      outer loop
         vertex -8.083981e+00 1.390000e+02 -2.626644e+00
         vertex -8.500000e+00 1.390000e+02 7.470345e-15
         vertex -6.876645e+00 1.390000e+02 -4.996175e+00
      endloop
   endfacet
   facet normal 0.000000e+00 1.000000e+00 0.000000e+00
      outer loop
         vertex -8.500000e+00 1.390000e+02 7.470345e-15
         vertex -8.083981e+00 1.390000e+02 2.626644e+00
         vertex -6.876645e+00 1.390000e+02 -4.996175e+00
      endloop
   endfacet
   facet normal 0.000000e+00 1.000000e+00 0.000000e+00
      outer loop
         vertex -6.876645e+00 1.390000e+02 -4.996175e+00
         vertex -8.083981e+00 1.390000e+02 2.626644e+00
         vertex -4.996175e+00 1.390000e+02 -6.876645e+00
      endloop
   endfacet
   facet normal 0.000000e+00 1.000000e+00 0.000000e+00
      outer loop
         vertex -8.083981e+00 1.390000e+02 2.626644e+00
         vertex -6.876645e+00 1.390000e+02 4.996175e+00
         vertex -4.996175e+00 1.390000e+02 -6.876645e+00
      endloop
   endfacet
   facet normal 0.000000e+00 1.000000e+00 0.000000e+00
      outer loop
         vertex -4.996175e+00 1.390000e+02 -6.876645e+00
         vertex -6.876645e+00 1.390000e+02 4.996175e+00
         vertex -2.626644e+00 1.390000e+02 -8.083981e+00
      endloop
   endfacet
   facet normal 0.000000e+00 1.000000e+00 0.000000e+00
      outer loop
         vertex -6.876645e+00 1.390000e+02 4.996175e+00
         vertex -4.996175e+00 1.390000e+02 6.876645e+00
         vertex -2.626644e+00 1.390000e+02 -8.083981e+00
      endloop
   endfacet
   facet normal 0.000000e+00 1.000000e+00 0.000000e+00
      outer loop
         vertex -2.626644e+00 1.390000e+02 -8.083981e+00
         vertex -4.996175e+00 1.390000e+02 6.876645e+00
         vertex 2.602374e-15 1.390000e+02 -8.500000e+00
      endloop
   endfacet
   facet normal 0.000000e+00 1.000000e+00 0.000000e+00
      outer loop
         vertex -4.996175e+00 1.390000e+02 6.876645e+00
         vertex -2.626644e+00 1.390000e+02 8.083981e+00
         vertex 2.602374e-15 1.390000e+02 -8.500000e+00
      endloop
   endfacet
   facet normal 0.000000e+00 1.000000e+00 0.000000e+00
      outer loop
         vertex 2.602374e-15 1.390000e+02 -8.500000e+00
         vertex -2.626644e+00 1.390000e+02 8.083981e+00
         vertex 2.626644e+00 1.390000e+02 -8.083981e+00
      endloop
   endfacet
   facet normal 0.000000e+00 1.000000e+00 0.000000e+00
      outer loop
         vertex -2.626644e+00 1.390000e+02 8.083981e+00
         vertex -1.561425e-15 1.390000e+02 8.500000e+00
         vertex 2.626644e+00 1.390000e+02 -8.083981e+00
      endloop
   endfacet
   facet normal 0.000000e+00 1.000000e+00 0.000000e+00
      outer loop
         vertex 2.626644e+00 1.390000e+02 -8.083981e+00
         vertex -1.561425e-15 1.390000e+02 8.500000e+00
         vertex 4.996175e+00 1.390000e+02 -6.876645e+00
      endloop
   endfacet
   facet normal 0.000000e+00 1.000000e+00 0.000000e+00
      outer loop
         vertex -1.561425e-15 1.390000e+02 8.500000e+00
         vertex 2.626644e+00 1.390000e+02 8.083981e+00
         vertex 4.996175e+00 1.390000e+02 -6.876645e+00
      endloop
   endfacet
   facet normal 0.000000e+00 1.000000e+00 0.000000e+00
      outer loop
         vertex 4.996175e+00 1.390000e+02 -6.876645e+00
         vertex 2.626644e+00 1.390000e+02 8.083981e+00
         vertex 6.876645e+00 1.390000e+02 -4.996175e+00
      endloop
   endfacet
   facet normal 0.000000e+00 1.000000e+00 0.000000e+00
      outer loop
         vertex 2.626644e+00 1.390000e+02 8.083981e+00
         vertex 4.996175e+00 1.390000e+02 6.876645e+00
         vertex 6.876645e+00 1.390000e+02 -4.996175e+00
      endloop
   endfacet
   facet normal 0.000000e+00 1.000000e+00 0.000000e+00
      outer loop
         vertex 6.876645e+00 1.390000e+02 -4.996175e+00
         vertex 4.996175e+00 1.390000e+02 6.876645e+00
         vertex 8.083981e+00 1.390000e+02 -2.626644e+00
      endloop
   endfacet
   facet normal 0.000000e+00 1.000000e+00 0.000000e+00
      outer loop
         vertex 4.996175e+00 1.390000e+02 6.876645e+00
         vertex 6.876645e+00 1.390000e+02 4.996175e+00
         vertex 8.083981e+00 1.390000e+02 -2.626644e+00
      endloop
   endfacet
   facet normal 0.000000e+00 1.000000e+00 0.000000e+00
      outer loop
         vertex 8.083981e+00 1.390000e+02 -2.626644e+00
         vertex 6.876645e+00 1.390000e+02 4.996175e+00
         vertex 8.500000e+00 1.390000e+02 1.059319e-14
      endloop
   endfacet
   facet normal 0.000000e+00 1.000000e+00 0.000000e+00
      outer loop
         vertex 6.876645e+00 1.390000e+02 4.996175e+00
         vertex 8.083981e+00 1.390000e+02 2.626644e+00
         vertex 8.500000e+00 1.390000e+02 1.059319e-14
      endloop
   endfacet
   facet normal 9.167579e-24 -1.000000e+00 -6.123234e-17
      outer loop
         vertex -8.083981e+00 -1.608356e-16 2.626644e+00
         vertex -8.500000e+00 6.373979e-32 -1.040950e-15
         vertex -6.876645e+00 -3.059275e-16 4.996175e+00
      endloop
   endfacet
   facet normal 3.158934e-24 -1.000000e+00 -6.123234e-17
      outer loop
         vertex -8.500000e+00 6.373979e-32 -1.040950e-15
         vertex -8.083981e+00 1.608356e-16 -2.626644e+00
         vertex -6.876645e+00 -3.059275e-16 4.996175e+00
      endloop
   endfacet
   facet normal 7.496505e-24 -1.000000e+00 -6.123234e-17
      outer loop
         vertex -6.876645e+00 -3.059275e-16 4.996175e+00
         vertex -8.083981e+00 1.608356e-16 -2.626644e+00
         vertex -4.996175e+00 -4.210730e-16 6.876645e+00
      endloop
   endfacet
   facet normal -1.162484e-24 -1.000000e+00 -6.123234e-17
      outer loop
         vertex -8.083981e+00 1.608356e-16 -2.626644e+00
         vertex -6.876645e+00 3.059275e-16 -4.996175e+00
         vertex -4.996175e+00 -4.210730e-16 6.876645e+00
      endloop
   endfacet
   facet normal -2.501222e-25 -1.000000e+00 -6.123234e-17
      outer loop
         vertex -4.996175e+00 -4.210730e-16 6.876645e+00
         vertex -6.876645e+00 3.059275e-16 -4.996175e+00
         vertex -2.626644e+00 -4.950010e-16 8.083981e+00
      endloop
   endfacet
   facet normal -3.704981e-24 -1.000000e+00 -6.123234e-17
      outer loop
         vertex -6.876645e+00 3.059275e-16 -4.996175e+00
         vertex -4.996175e+00 4.210730e-16 -6.876645e+00
         vertex -2.626644e+00 -4.950010e-16 8.083981e+00
      endloop
   endfacet
   facet normal -1.482134e-23 -1.000000e+00 -6.123233e-17
      outer loop
         vertex -2.626644e+00 -4.950010e-16 8.083981e+00
         vertex -4.996175e+00 4.210730e-16 -6.876645e+00
         vertex -1.561425e-15 -5.204749e-16 8.500000e+00
      endloop
   endfacet
   facet normal -6.302178e-25 -1.000000e+00 -6.123234e-17
      outer loop
         vertex -4.996175e+00 4.210730e-16 -6.876645e+00
         vertex -2.626644e+00 4.950010e-16 -8.083981e+00
         vertex -1.561425e-15 -5.204749e-16 8.500000e+00
      endloop
   endfacet
   facet normal 1.373078e-23 -1.000000e+00 -6.123234e-17
      outer loop
         vertex -1.561425e-15 -5.204749e-16 8.500000e+00
         vertex -2.626644e+00 4.950010e-16 -8.083981e+00
         vertex 2.626644e+00 -4.950010e-16 8.083981e+00
      endloop
   endfacet
   facet normal 1.373078e-23 -1.000000e+00 -6.123234e-17
      outer loop
         vertex -2.626644e+00 4.950010e-16 -8.083981e+00
         vertex 2.602374e-15 5.204749e-16 -8.500000e+00
         vertex 2.626644e+00 -4.950010e-16 8.083981e+00
      endloop
   endfacet
   facet normal -6.302178e-25 -1.000000e+00 -6.123234e-17
      outer loop
         vertex 2.626644e+00 -4.950010e-16 8.083981e+00
         vertex 2.602374e-15 5.204749e-16 -8.500000e+00
         vertex 4.996175e+00 -4.210730e-16 6.876645e+00
      endloop
   endfacet
   facet normal -1.482134e-23 -1.000000e+00 -6.123233e-17
      outer loop
         vertex 2.602374e-15 5.204749e-16 -8.500000e+00
         vertex 2.626644e+00 4.950010e-16 -8.083981e+00
         vertex 4.996175e+00 -4.210730e-16 6.876645e+00
      endloop
   endfacet
   facet normal -3.704981e-24 -1.000000e+00 -6.123234e-17
      outer loop
         vertex 4.996175e+00 -4.210730e-16 6.876645e+00
         vertex 2.626644e+00 4.950010e-16 -8.083981e+00
         vertex 6.876645e+00 -3.059275e-16 4.996175e+00
      endloop
   endfacet
   facet normal -2.501222e-25 -1.000000e+00 -6.123234e-17
      outer loop
         vertex 2.626644e+00 4.950010e-16 -8.083981e+00
         vertex 4.996175e+00 4.210730e-16 -6.876645e+00
         vertex 6.876645e+00 -3.059275e-16 4.996175e+00
      endloop
   endfacet
   facet normal -1.162484e-24 -1.000000e+00 -6.123234e-17
      outer loop
         vertex 6.876645e+00 -3.059275e-16 4.996175e+00
         vertex 4.996175e+00 4.210730e-16 -6.876645e+00
         vertex 8.083981e+00 -1.608356e-16 2.626644e+00
      endloop
   endfacet
   facet normal 7.496505e-24 -1.000000e+00 -6.123234e-17
      outer loop
         vertex 4.996175e+00 4.210730e-16 -6.876645e+00
         vertex 6.876645e+00 3.059275e-16 -4.996175e+00
         vertex 8.083981e+00 -1.608356e-16 2.626644e+00
      endloop
   endfacet
   facet normal 3.158934e-24 -1.000000e+00 -6.123234e-17
      outer loop
         vertex 8.083981e+00 -1.608356e-16 2.626644e+00
         vertex 6.876645e+00 3.059275e-16 -4.996175e+00
         vertex 8.500000e+00 -1.274796e-31 2.081900e-15
      endloop
   endfacet
   facet normal 9.167579e-24 -1.000000e+00 -6.123234e-17
      outer loop
         vertex 6.876645e+00 3.059275e-16 -4.996175e+00
         vertex 8.083981e+00 1.608356e-16 -2.626644e+00
         vertex 8.500000e+00 -1.274796e-31 2.081900e-15
      endloop
   endfacet
endsolid
